<?xml version="1.0" encoding="utf-8"?>
<!-- Generator: Adobe Illustrator 23.1.0, SVG Export Plug-In . SVG Version: 6.00 Build 0)  -->
<svg version="1.1" id="Layer_1" xmlns="http://www.w3.org/2000/svg" xmlns:xlink="http://www.w3.org/1999/xlink" x="0px" y="0px"
	 viewBox="0 0 1434.3 642" style="enable-background:new 0 0 1434.3 642;" xml:space="preserve">
<style type="text/css">
	.st0{fill:#FFFFFF;}
	.st1{fill:#FFFFFF;stroke:#000000;stroke-width:5;stroke-miterlimit:10;}
	.st2{font-family:'Poppins-Bold';}
	.st3{font-size:273.7848px;}
	.st4{letter-spacing:-3;}
	.st5{fill:#FFDE00;stroke:#000000;stroke-width:4;stroke-miterlimit:10;}
	.st6{stroke:#000000;stroke-width:3;stroke-miterlimit:10;}
</style>
<g>
	<title>logo</title>
	<g>
		<g id="Layer_1_1_">
			<path d="M219.9,362.9c-6.5,1.7-11.8,6.4-14.2,12.7c-3,7.9-0.5,16.9,6.2,22.1c3.5,2.9,7.9,4.6,12.5,4.6c3.8,0,5.5-0.6,13-4.3
				c7.1-3.5,9.6-4.5,13.3-5c4.4-0.6,7.4-0.2,16.3,2.4c7.4,2.2,10.1,2.5,13.7,1.9c2.4-0.4,4.7-1.3,6.7-2.6c5.1-3.1,8.6-8.2,9.6-14.1
				c0.4-2.8,0.2-5.6-0.5-8.3c-0.7-2.2-1.7-4.3-3-6.1c-2.1-2.6-4.7-4.8-7.6-6.4c-3.3-1.7-7-2.3-10.7-1.8c-3.4,0.4-4.6,0.9-13.4,5.2
				c-9.5,4.6-14.4,5.1-24.6,2.2s-10.7-3-14.2-2.7C221.9,362.6,220.9,362.7,219.9,362.9z M225.2,366.4c1.9,0.2,3.3,0.6,8.5,2.1
				c3.5,1.2,7.2,2,10.8,2.4c6.3,0.6,11.4-0.6,19-4.2l5-2.5c4.2-2.1,6.6-2.7,9.5-2.5c6,0.2,11.3,3.8,13.7,9.3c0.9,2,1.4,4.1,1.4,6.3
				c0.5,8.1-5.4,15.2-13.5,16.3c-3.1,0.4-5,0.1-12.2-2.1c-3.4-1.1-6.8-1.9-10.3-2.4c-1.9-0.2-3.9-0.2-5.8,0.1
				c-1.9,0.1-3.9,0.4-5.7,0.9c-3.7,1.2-7.2,2.8-10.6,4.6c-5.5,2.7-7.4,3.5-9.7,3.7c-10.9,0.9-19.2-8.9-16.7-19.9
				C210.5,370.9,217.5,365.8,225.2,366.4L225.2,366.4z"/>
			<path d="M222,372.6c-3.5,0.8-7,4.6-7.6,8.3c-1.2,6.9,6,13.2,12.6,11.1c1.9-0.6,3.6-1.7,4.8-3.3c3-3.6,3.4-7.5,1.1-11.4
				C230.6,373.6,226.3,371.7,222,372.6z M226.6,376.6c3.3,1.4,4.8,5.3,3.3,8.5c-0.1,0.3-0.3,0.7-0.5,1c-0.4,0.6-1,1.1-1.6,1.5
				c-0.8,0.5-1.1,0.6-2.9,0.8s-2.1,0.2-3-0.2c-2.7-1.2-4.2-4-3.6-6.9c0.2-1.9,1.5-3.6,3.3-4.4C223.2,376.2,224.9,376.1,226.6,376.6
				L226.6,376.6z"/>
			<polyline class="st0" points="204.4,381.7 212.3,371.6 214.3,390.8 222.1,394.6 240.4,392.2 224.8,401.1 219.6,403.7 
				211.8,403.8 202.6,396.1 204.4,382.1 			"/>
			<polygon class="st0" points="305,396.9 274.1,384.7 273.8,358.1 301.3,355.7 			"/>
			<path d="M279.1,356.7c-6.5,1.7-11.8,6.4-14.2,12.7c-3,7.9-0.5,16.9,6.2,22.1c3.5,2.9,7.9,4.6,12.5,4.6c3.8,0,5.6-0.6,13-4.3
				c7.1-3.5,9.6-4.5,13.3-5c4.4-0.6,7.4-0.2,16.3,2.4c7.4,2.2,10.1,2.5,13.7,1.9c2.4-0.4,4.7-1.3,6.7-2.6c5.1-3.1,8.6-8.2,9.6-14.1
				c0.4-2.8,0.2-5.6-0.5-8.3c-0.6-2.2-1.7-4.3-3-6.1c-2.1-2.6-4.7-4.8-7.6-6.4c-3.3-1.7-7-2.3-10.7-1.8c-3.4,0.4-4.6,0.9-13.4,5.2
				c-9.5,4.6-14.4,5.1-24.6,2.2s-10.7-3-14.2-2.7C281.2,356.4,280.1,356.5,279.1,356.7z M284.5,360.3c1.9,0.2,3.3,0.6,8.5,2.1
				c3.5,1.2,7.2,2,10.8,2.4c6.3,0.6,11.4-0.5,19-4.2c1.5-0.7,3.8-1.8,5.1-2.5c4.2-2.1,6.6-2.7,9.5-2.5c6,0.2,11.3,3.8,13.7,9.3
				c0.9,2,1.4,4.1,1.4,6.3c0.5,8.1-5.4,15.3-13.5,16.3c-3.1,0.4-5,0.1-12.2-2.1c-3.4-1.1-6.8-1.9-10.3-2.4c-1.9-0.2-3.9-0.2-5.8,0.1
				c-1.9,0.1-3.9,0.4-5.7,0.9c-3.7,1.2-7.2,2.8-10.6,4.6c-5.5,2.7-7.4,3.5-9.7,3.7c-10.9,0.9-19.2-8.9-16.7-19.9
				c0.9-4.1,3.4-7.6,7-9.8C277.8,360.8,281.2,360,284.5,360.3z"/>
			<path d="M281.3,366.4c-3.5,0.8-7,4.6-7.6,8.3c-1.2,6.8,6,13.2,12.6,11.1c1.9-0.6,3.6-1.7,4.8-3.3c3-3.6,3.4-7.5,1.1-11.4
				C289.9,367.4,285.5,365.5,281.3,366.4z M285.8,370.4c3.3,1.4,4.8,5.3,3.3,8.6c-0.1,0.3-0.3,0.7-0.5,1c-0.5,0.6-1,1.1-1.6,1.5
				c-0.8,0.5-1.1,0.6-2.9,0.8s-2.1,0.2-3-0.2c-2.7-1.2-4.1-4-3.6-6.9c0.3-1.9,1.5-3.6,3.3-4.4C282.4,370,284.1,369.9,285.8,370.4
				L285.8,370.4z"/>
			
				<rect x="334.8" y="350.6" transform="matrix(0.9962 -8.715482e-02 8.715482e-02 0.9962 -31.0342 31.7952)" class="st0" width="27.6" height="41.4"/>
			<path d="M334.1,351.9c-6.5,1.7-11.8,6.4-14.2,12.7c-3,7.9-0.5,16.9,6.2,22.1c3.5,2.9,7.9,4.6,12.5,4.6c3.8,0,5.5-0.6,13-4.3
				c7.1-3.5,9.6-4.5,13.3-5c4.4-0.6,7.4-0.2,16.3,2.4c7.4,2.2,10.1,2.5,13.7,1.9c2.4-0.4,4.7-1.3,6.7-2.6c5.1-3.1,8.6-8.2,9.6-14.1
				c0.4-2.8,0.2-5.6-0.5-8.3c-0.6-2.2-1.7-4.3-3-6.1c-2.1-2.6-4.7-4.8-7.6-6.4c-3.3-1.7-7.1-2.3-10.8-1.8c-3.4,0.4-4.6,0.9-13.4,5.2
				c-9.6,4.6-14.5,5-24.6,2.2s-10.7-3-14.2-2.7C335.8,351.7,334.4,351.8,334.1,351.9z M339.5,355.5c1.9,0.2,3.3,0.6,8.5,2.1
				c3.5,1.2,7.2,2,10.8,2.4c6.3,0.6,11.4-0.6,19-4.2l5-2.5c4.2-2.1,6.6-2.7,9.5-2.5c6,0.2,11.3,3.8,13.7,9.3c0.9,2,1.4,4.1,1.4,6.3
				c0.5,8.1-5.4,15.2-13.5,16.3c-3.1,0.4-5,0.1-12.2-2.1c-3.4-1.1-6.8-1.9-10.3-2.4c-1.9-0.2-3.9-0.2-5.8,0.1
				c-1.9,0.1-3.9,0.4-5.7,0.9c-3.7,1.2-7.2,2.8-10.6,4.6c-5.5,2.7-7.4,3.5-9.7,3.7c-10.9,0.9-19.2-8.9-16.7-19.9
				c0.9-4.1,3.4-7.6,7-9.8C332.8,356,336.2,355.2,339.5,355.5L339.5,355.5z"/>
			<path d="M336.3,361.6c-3.5,0.8-7,4.6-7.6,8.3c-1.2,6.8,6,13.2,12.6,11.1c1.9-0.6,3.6-1.7,4.8-3.3c3-3.6,3.4-7.5,1.1-11.4
				C344.9,362.6,340.6,360.7,336.3,361.6z M340.8,365.6c3.3,1.4,4.8,5.3,3.3,8.5c-0.1,0.3-0.3,0.7-0.5,1c-0.4,0.6-1,1.1-1.6,1.5
				c-0.8,0.5-1.1,0.6-2.9,0.8s-2.1,0.2-3-0.2c-2.7-1.2-4.1-4-3.6-6.9c0.2-1.9,1.5-3.6,3.3-4.4C337.4,365.2,339.2,365.1,340.8,365.6
				L340.8,365.6z"/>
			
				<rect x="389.8" y="345.8" transform="matrix(0.9962 -8.715482e-02 8.715482e-02 0.9962 -30.4066 36.5705)" class="st0" width="27.6" height="41.4"/>
			<path d="M389.2,347.1c-6.5,1.7-11.8,6.4-14.2,12.7c-3,7.9-0.5,16.9,6.2,22.1c3.5,2.9,8,4.6,12.5,4.6c3.8,0,5.5-0.6,13-4.3
				c7.1-3.5,9.6-4.5,13.3-5c4.4-0.6,7.4-0.2,16.3,2.4c7.4,2.2,10.1,2.5,13.7,1.9c2.4-0.4,4.7-1.3,6.7-2.6c5.1-3.1,8.6-8.2,9.6-14.1
				c0.4-2.8,0.2-5.6-0.5-8.3c-0.7-2.2-1.7-4.3-3-6.1c-2.1-2.6-4.7-4.8-7.6-6.4c-3.3-1.7-7.1-2.3-10.8-1.8c-3.4,0.4-4.6,0.9-13.4,5.2
				c-9.5,4.6-14.4,5.1-24.6,2.2s-10.7-3-14.2-2.7C391.2,346.8,390.2,346.9,389.2,347.1z M394.5,350.7c1.9,0.2,3.3,0.6,8.5,2.1
				c3.5,1.2,7.2,2,10.8,2.4c6.3,0.6,11.4-0.5,19-4.2c1.5-0.7,3.8-1.8,5.1-2.5c4.2-2.1,6.6-2.7,9.5-2.5c6,0.2,11.3,3.8,13.7,9.3
				c0.9,2,1.4,4.1,1.4,6.3c0.5,8.1-5.4,15.3-13.5,16.3c-3.1,0.4-5,0.1-12.2-2.1c-3.4-1.1-6.8-1.9-10.3-2.4c-1.9-0.2-3.9-0.2-5.8,0.1
				c-1.9,0.1-3.9,0.4-5.7,0.9c-3.7,1.2-7.2,2.7-10.6,4.6c-5.5,2.7-7.4,3.5-9.7,3.7c-10.9,0.9-19.2-8.9-16.7-19.9
				c0.9-4.1,3.4-7.6,7-9.8C387.9,351.1,391.2,350.3,394.5,350.7z"/>
			<path d="M391.3,356.8c-3.5,0.8-7,4.6-7.6,8.3c-1.2,6.8,6,13.2,12.6,11.1c1.9-0.6,3.6-1.7,4.8-3.3c3-3.6,3.4-7.5,1.1-11.4
				C399.9,357.8,395.6,355.9,391.3,356.8z M395.8,360.8c3.3,1.4,4.8,5.3,3.3,8.6c-0.1,0.3-0.3,0.6-0.5,1c-0.5,0.6-1,1.1-1.6,1.5
				c-0.8,0.5-1.1,0.6-2.9,0.8s-2.1,0.2-3-0.2c-2.7-1.2-4.1-4-3.6-6.9c0.2-1.9,1.5-3.6,3.3-4.4C392.4,360.4,394.2,360.3,395.8,360.8
				L395.8,360.8z"/>
			
				<rect x="444.8" y="341" transform="matrix(0.9962 -8.715482e-02 8.715482e-02 0.9962 -29.779 41.3457)" class="st0" width="27.6" height="41.4"/>
			<path d="M444.2,342.3c-6.5,1.7-11.8,6.4-14.2,12.7c-3,7.9-0.5,16.9,6.2,22.1c3.5,2.9,7.9,4.6,12.5,4.6c3.8,0,5.5-0.6,13-4.3
				c7.1-3.5,9.6-4.5,13.3-5c4.4-0.6,7.4-0.2,16.3,2.4c7.4,2.2,10.1,2.5,13.7,1.9c2.4-0.4,4.7-1.3,6.7-2.6c5.1-3.1,8.6-8.2,9.6-14.1
				c0.4-2.8,0.2-5.6-0.5-8.3c-0.6-2.2-1.7-4.3-3-6.1c-2.1-2.6-4.7-4.8-7.6-6.4c-3.3-1.7-7.1-2.3-10.8-1.8c-3.4,0.4-4.6,0.9-13.4,5.2
				c-9.5,4.6-14.4,5.1-24.6,2.2s-10.7-3-14.2-2.7C446.2,342,445.2,342.1,444.2,342.3z M449.5,345.8c1.9,0.2,3.3,0.6,8.5,2.1
				c3.5,1.2,7.2,2,10.8,2.4c6.3,0.6,11.4-0.6,19-4.2l5.1-2.5c4.2-2.1,6.6-2.7,9.5-2.5c6,0.2,11.3,3.8,13.7,9.3
				c0.9,2,1.4,4.1,1.4,6.3c0.5,8.1-5.4,15.2-13.5,16.3c-3.1,0.4-5,0.1-12.2-2.1c-3.4-1.1-6.8-1.9-10.3-2.4c-1.9-0.2-3.9-0.2-5.8,0.1
				c-1.9,0.1-3.8,0.4-5.7,0.9c-3.7,1.2-7.3,2.8-10.7,4.6c-5.5,2.7-7.4,3.5-9.7,3.7c-10.9,0.9-19.2-8.9-16.7-19.9
				c0.9-4.1,3.4-7.6,7-9.8C442.9,346.3,446.2,345.5,449.5,345.8z"/>
			<path d="M446.3,351.9c-3.5,0.8-7,4.6-7.6,8.3c-1.2,6.8,6,13.2,12.6,11.1c1.9-0.6,3.6-1.7,4.8-3.3c3-3.6,3.4-7.5,1.1-11.4
				C454.9,353,450.6,351.1,446.3,351.9z M450.8,355.9c3.3,1.4,4.8,5.3,3.3,8.5c-0.1,0.3-0.3,0.7-0.5,1c-0.4,0.6-1,1.1-1.6,1.5
				c-0.8,0.5-1.1,0.6-2.9,0.8s-2.1,0.2-3-0.2c-2.7-1.2-4.1-4-3.6-6.9c0.3-1.9,1.5-3.6,3.3-4.4C447.5,355.6,449.2,355.5,450.8,355.9
				L450.8,355.9z"/>
			
				<rect x="499.9" y="336.2" transform="matrix(0.9962 -8.715482e-02 8.715482e-02 0.9962 -29.151 46.1298)" class="st0" width="27.6" height="41.4"/>
			<path d="M499.2,337.4c-6.5,1.7-11.8,6.4-14.2,12.8c-3,7.9-0.5,16.9,6.2,22.1c3.5,2.9,7.9,4.6,12.5,4.6c3.8,0,5.5-0.6,13-4.3
				c7.1-3.5,9.6-4.5,13.3-5c4.4-0.6,7.4-0.2,16.3,2.4c7.4,2.2,10.1,2.5,13.7,1.9c2.4-0.4,4.7-1.3,6.7-2.6c5.1-3.1,8.6-8.3,9.6-14.1
				c0.4-2.8,0.2-5.6-0.5-8.3c-0.7-2.2-1.7-4.3-3-6.1c-2.1-2.6-4.7-4.8-7.6-6.4c-3.3-1.7-7.1-2.3-10.8-1.8c-3.4,0.4-4.6,0.9-13.4,5.2
				c-9.5,4.6-14.4,5.1-24.6,2.2s-10.7-3-14.2-2.7C501.2,337.2,500.2,337.3,499.2,337.4z M504.5,341c1.9,0.2,3.3,0.6,8.5,2.1
				c3.5,1.2,7.2,2,10.8,2.4c6.3,0.6,11.4-0.5,19-4.2c1.5-0.7,3.8-1.8,5-2.5c4.2-2.1,6.6-2.7,9.5-2.5c6,0.2,11.3,3.8,13.7,9.3
				c0.9,2,1.4,4.1,1.4,6.3c0.5,8.1-5.4,15.3-13.5,16.3c-3.1,0.4-5,0.1-12.2-2.1c-3.4-1.1-6.8-1.9-10.3-2.4c-1.9-0.2-3.9-0.2-5.8,0.1
				c-1.9,0.1-3.9,0.4-5.7,0.9c-3.7,1.2-7.2,2.8-10.6,4.6c-5.5,2.7-7.4,3.5-9.7,3.7c-10.9,0.9-19.2-8.9-16.7-19.9
				c0.9-4.1,3.4-7.6,7-9.8C497.9,341.5,501.2,340.7,504.5,341z"/>
			<path d="M501.3,347.1c-3.9,1.2-6.8,4.4-7.6,8.3c-1.2,6.8,6,13.2,12.6,11.1c1.9-0.6,3.6-1.7,4.8-3.3c3-3.6,3.4-7.5,1.1-11.4
				C510,348.2,505.6,346.3,501.3,347.1z M505.9,351.1c3.3,1.4,4.8,5.3,3.3,8.5c-0.1,0.3-0.3,0.7-0.5,1c-0.4,0.6-1,1.1-1.6,1.5
				c-0.8,0.5-1.1,0.6-2.9,0.8s-2.1,0.2-3-0.2c-2.7-1.2-4.1-4-3.6-6.9c0.2-1.9,1.5-3.6,3.3-4.4C502.5,350.8,504.2,350.7,505.9,351.1
				L505.9,351.1z"/>
			
				<rect x="554.9" y="331.4" transform="matrix(0.9962 -8.715482e-02 8.715482e-02 0.9962 -28.5234 50.905)" class="st0" width="27.6" height="41.4"/>
			<path d="M548.2,331.2c-6.5,1.7-11.8,6.4-14.2,12.7c-3,7.9-0.5,16.9,6.2,22.1c3.5,2.9,7.9,4.6,12.5,4.6c3.8,0,5.5-0.6,13-4.3
				c7.1-3.5,9.6-4.5,13.3-5c4.4-0.6,7.4-0.2,16.3,2.4c7.4,2.2,10.1,2.6,13.7,1.9c2.4-0.4,4.7-1.3,6.7-2.6c5.1-3.1,8.6-8.2,9.6-14.1
				c0.4-2.8,0.2-5.6-0.5-8.3c-0.6-2.2-1.7-4.3-3-6.1c-2.1-2.6-4.7-4.8-7.6-6.4c-3.3-1.7-7.1-2.4-10.8-1.9c-3.4,0.4-4.6,0.9-13.4,5.2
				c-9.5,4.6-14.4,5.1-24.6,2.2s-10.7-3-14.2-2.7C550.3,330.9,549.2,331,548.2,331.2z M553.6,334.8c1.9,0.2,3.3,0.6,8.5,2.1
				c3.5,1.2,7.2,2,10.8,2.4c6.3,0.6,11.4-0.6,19-4.2c1.5-0.7,3.8-1.8,5.1-2.5c4.2-2.1,6.6-2.7,9.5-2.6c6,0.2,11.3,3.7,13.7,9.2
				c0.9,2,1.4,4.1,1.4,6.3c0.5,8.1-5.4,15.2-13.5,16.3c-3.1,0.4-5,0.1-12.2-2.1c-3.4-1.1-6.8-1.9-10.3-2.4c-1.9-0.2-3.9-0.2-5.8,0.1
				c-1.9,0.1-3.8,0.4-5.7,0.9c-3.7,1.2-7.2,2.8-10.6,4.6c-5.5,2.7-7.4,3.5-9.7,3.7c-10.9,0.9-19.2-8.9-16.7-19.9
				c0.9-4.1,3.4-7.6,7-9.8C547,335.2,550.3,334.4,553.6,334.8L553.6,334.8z"/>
			<path d="M550.4,340.8c-3.5,0.8-7,4.6-7.6,8.3c-1.2,6.8,6,13.2,12.6,11.1c1.9-0.6,3.6-1.7,4.8-3.3c3-3.6,3.4-7.5,1.1-11.4
				C559,341.9,554.7,340,550.4,340.8z M555,344.8c3.3,1.4,4.8,5.3,3.3,8.5c-0.1,0.3-0.3,0.7-0.5,1c-0.4,0.6-1,1.1-1.6,1.5
				c-0.8,0.5-1.1,0.6-2.9,0.8s-2.1,0.2-3-0.2c-2.7-1.2-4.1-4-3.6-6.9c0.3-1.9,1.5-3.6,3.3-4.4C551.6,344.5,553.3,344.4,555,344.8
				L555,344.8z"/>
			
				<rect x="603.9" y="325.1" transform="matrix(0.9962 -8.715482e-02 8.715482e-02 0.9962 -27.7878 55.1516)" class="st0" width="27.6" height="41.4"/>
			<path d="M603.3,326.3c-6.5,1.7-11.8,6.4-14.2,12.7c-3.1,7.9-0.5,16.9,6.2,22.1c3.5,2.9,7.9,4.6,12.5,4.6c3.8,0,5.5-0.6,13-4.3
				c7.1-3.5,9.6-4.5,13.3-5c4.4-0.6,7.4-0.2,16.3,2.4c7.4,2.2,10.1,2.5,13.7,1.9c2.4-0.4,4.7-1.3,6.7-2.6c5.1-3.1,8.6-8.2,9.6-14.1
				c0.4-2.8,0.2-5.6-0.5-8.3c-0.7-2.2-1.7-4.3-3-6.1c-2.1-2.6-4.7-4.8-7.6-6.4c-3.3-1.7-7-2.3-10.7-1.8c-3.4,0.4-4.6,0.9-13.4,5.2
				c-9.5,4.6-14.4,5.1-24.6,2.2s-10.7-3-14.2-2.7C605.3,326.1,604.3,326.2,603.3,326.3z M608.6,329.9c1.9,0.2,3.3,0.6,8.5,2.1
				c3.5,1.2,7.2,2,10.8,2.4c6.3,0.6,11.4-0.5,19-4.2c1.5-0.7,3.8-1.8,5-2.5c4.2-2.1,6.6-2.7,9.5-2.5c6,0.2,11.3,3.8,13.7,9.3
				c0.9,2,1.4,4.1,1.4,6.3c0.5,8.1-5.4,15.3-13.5,16.3c-3.1,0.4-5,0.1-12.2-2.1c-3.4-1.1-6.8-1.9-10.3-2.4c-1.9-0.2-3.9-0.2-5.8,0.1
				c-1.9,0.1-3.9,0.4-5.7,0.9c-3.7,1.2-7.2,2.8-10.6,4.6c-5.5,2.7-7.4,3.5-9.7,3.7c-10.9,0.9-19.2-8.9-16.7-19.9
				c0.9-4.1,3.4-7.6,7-9.8C602,330.4,605.3,329.6,608.6,329.9L608.6,329.9z"/>
			<path d="M605.4,336c-3.5,0.8-7,4.6-7.6,8.3c-1.2,6.8,6,13.2,12.6,11.1c1.9-0.6,3.6-1.7,4.8-3.3c3-3.6,3.4-7.5,1.1-11.4
				C614,337.1,609.7,335.2,605.4,336z M610,340c3.3,1.4,4.8,5.3,3.3,8.5c-0.1,0.3-0.3,0.7-0.5,1c-0.4,0.6-1,1.1-1.6,1.5
				c-0.8,0.5-1.1,0.6-2.9,0.8s-2.1,0.1-3-0.2c-2.7-1.2-4.1-4-3.6-6.9c0.2-1.9,1.5-3.6,3.3-4.4C606.6,339.7,608.3,339.6,610,340
				L610,340z"/>
			
				<rect x="658.9" y="320.3" transform="matrix(0.9962 -8.715482e-02 8.715482e-02 0.9962 -27.1602 59.9269)" class="st0" width="27.6" height="41.4"/>
			<path d="M658.3,321.5c-6.5,1.7-11.8,6.4-14.2,12.7c-3,7.9-0.5,16.9,6.2,22.1c3.5,2.9,8,4.6,12.5,4.6c3.8,0,5.5-0.6,13-4.3
				c7.1-3.5,9.6-4.5,13.3-5c4.4-0.6,7.4-0.2,16.3,2.4c7.4,2.2,10.1,2.6,13.7,1.9c2.4-0.4,4.7-1.3,6.7-2.6c5.1-3.1,8.6-8.2,9.6-14.1
				c0.4-2.8,0.2-5.6-0.5-8.3c-0.7-2.2-1.7-4.3-3-6.1c-2.1-2.6-4.7-4.8-7.6-6.4c-3.3-1.7-7-2.3-10.7-1.8c-3.4,0.4-4.6,0.9-13.4,5.2
				c-9.5,4.6-14.4,5.1-24.6,2.2s-10.7-3-14.2-2.7C660.3,321.2,659.3,321.3,658.3,321.5z M663.6,325.1c1.9,0.2,3.3,0.6,8.5,2.1
				c3.5,1.2,7.2,2,10.8,2.4c6.3,0.6,11.4-0.6,19-4.2c1.5-0.7,3.8-1.8,5.1-2.5c4.2-2.1,6.6-2.7,9.5-2.6c6,0.2,11.3,3.8,13.7,9.3
				c0.9,2,1.4,4.1,1.4,6.3c0.5,8.2-5.4,15.3-13.5,16.3c-3.1,0.4-5,0.1-12.2-2.1c-3.4-1.1-6.8-1.9-10.3-2.4c-1.9-0.2-3.9-0.2-5.8,0.1
				c-1.9,0.1-3.9,0.4-5.7,0.9c-3.7,1.2-7.2,2.8-10.6,4.6c-5.5,2.7-7.4,3.5-9.7,3.7c-10.9,0.9-19.2-8.9-16.7-19.9
				c0.9-4.1,3.4-7.6,7-9.8C657,325.6,660.3,324.8,663.6,325.1z"/>
			<path d="M660.4,331.2c-3.5,0.8-7,4.6-7.6,8.3c-1.2,6.9,6,13.2,12.6,11.1c1.9-0.6,3.6-1.7,4.8-3.3c3-3.6,3.4-7.5,1.1-11.4
				C669,332.2,664.7,330.3,660.4,331.2z M665,335.2c3.3,1.5,4.8,5.3,3.3,8.6c-0.1,0.3-0.3,0.6-0.5,0.9c-0.4,0.6-1,1.1-1.6,1.5
				c-0.8,0.5-1.1,0.6-2.9,0.8s-2.1,0.2-3-0.2c-2.7-1.2-4.1-4-3.6-6.9c0.3-1.9,1.5-3.6,3.3-4.4C661.6,334.9,663.3,334.8,665,335.2z"
				/>
			
				<rect x="714" y="315.5" transform="matrix(0.9962 -8.715482e-02 8.715482e-02 0.9962 -26.5322 64.711)" class="st0" width="27.6" height="41.4"/>
			<path d="M713.3,316.7c-6.5,1.7-11.8,6.4-14.2,12.7c-3,7.9-0.5,16.9,6.2,22.1c3.5,2.9,7.9,4.6,12.5,4.6c3.8,0,5.5-0.6,13-4.3
				c7.1-3.5,9.6-4.5,13.3-5c4.4-0.6,7.4-0.2,16.3,2.4c7.4,2.2,10.1,2.5,13.7,1.9c2.4-0.4,4.7-1.3,6.7-2.6c5.1-3.1,8.6-8.2,9.6-14.1
				c0.4-2.8,0.2-5.6-0.5-8.3c-0.6-2.2-1.7-4.3-3-6.1c-2.1-2.6-4.7-4.8-7.6-6.4c-3.3-1.7-7-2.3-10.7-1.8c-3.4,0.4-4.6,0.9-13.4,5.2
				c-9.5,4.6-14.4,5.1-24.6,2.2s-10.7-3-14.2-2.7C715.3,316.4,714.3,316.5,713.3,316.7z M718.7,320.3c1.9,0.2,3.3,0.6,8.5,2.1
				c3.5,1.2,7.2,2,10.8,2.4c6.3,0.6,11.4-0.5,19-4.2c1.5-0.7,3.8-1.8,5.1-2.5c4.2-2.1,6.6-2.7,9.5-2.5c6,0.2,11.3,3.8,13.7,9.3
				c0.9,2,1.4,4.1,1.4,6.3c0.5,8.1-5.4,15.3-13.5,16.3c-3.1,0.4-5,0.1-12.2-2.1c-3.4-1.1-6.8-1.9-10.3-2.4c-1.9-0.2-3.9-0.2-5.8,0.1
				c-1.9,0.1-3.8,0.4-5.7,0.9c-3.7,1.2-7.2,2.8-10.6,4.6c-5.5,2.7-7.4,3.5-9.7,3.7c-10.9,0.9-19.2-8.9-16.7-19.9
				c0.9-4.1,3.4-7.6,7-9.8C712,320.8,715.3,320,718.7,320.3z"/>
			<path d="M715.4,326.4c-3.5,0.8-7,4.6-7.6,8.3c-1.2,6.8,6,13.2,12.6,11.1c1.9-0.6,3.6-1.7,4.8-3.3c3-3.6,3.4-7.5,1.1-11.4
				C724,327.4,719.7,325.5,715.4,326.4z M720,330.4c3.3,1.4,4.8,5.3,3.3,8.5c-0.1,0.3-0.3,0.7-0.5,1c-0.4,0.6-1,1.1-1.6,1.5
				c-0.8,0.5-1.1,0.6-2.9,0.8s-2.1,0.1-3-0.2c-2.7-1.2-4.1-4-3.6-6.9c0.3-1.9,1.5-3.6,3.3-4.4C716.6,330,718.3,329.9,720,330.4
				L720,330.4z"/>
			
				<rect x="769" y="310.6" transform="matrix(0.9962 -8.715482e-02 8.715482e-02 0.9962 -25.8958 69.4858)" class="st0" width="27.6" height="41.4"/>
			<path d="M768.3,311.9c-6.5,1.7-11.8,6.4-14.2,12.7c-3,7.9-0.5,16.9,6.2,22.1c3.5,2.9,8,4.6,12.5,4.6c3.8,0,5.6-0.6,13-4.3
				c7.1-3.5,9.6-4.5,13.3-5c4.4-0.6,7.4-0.2,16.3,2.4c7.4,2.2,10.1,2.5,13.7,1.9c2.4-0.4,4.7-1.3,6.7-2.6c5.1-3.1,8.6-8.2,9.6-14.1
				c0.4-2.8,0.2-5.6-0.5-8.3c-0.7-2.2-1.7-4.3-3-6.1c-2.1-2.6-4.7-4.8-7.6-6.4c-3.3-1.7-7-2.3-10.7-1.8c-3.4,0.4-4.6,0.9-13.4,5.2
				c-9.5,4.6-14.4,5.1-24.6,2.2s-10.7-3-14.2-2.7C770.4,311.6,769.3,311.7,768.3,311.9z M773.7,315.5c1.9,0.2,3.3,0.6,8.5,2.1
				c3.5,1.2,7.2,2,10.8,2.4c6.3,0.6,11.4-0.6,19-4.2l5.1-2.5c4.2-2.1,6.6-2.7,9.5-2.6c6,0.2,11.3,3.8,13.7,9.3
				c0.9,2,1.4,4.1,1.4,6.3c0.5,8.1-5.4,15.2-13.5,16.3c-3.1,0.4-5,0.1-12.2-2.1c-3.4-1.1-6.8-1.9-10.3-2.4c-1.9-0.2-3.9-0.2-5.8,0.1
				c-1.9,0.1-3.9,0.4-5.7,0.9c-3.7,1.2-7.2,2.8-10.6,4.6c-5.4,2.7-7.4,3.5-9.7,3.7c-10.9,0.9-19.2-8.9-16.7-19.9
				c0.9-4.1,3.4-7.6,7-9.8C767,316,770.3,315.2,773.7,315.5z"/>
			<path d="M770.4,321.6c-3.5,0.8-7,4.6-7.6,8.3c-1.2,6.9,6,13.2,12.6,11.1c1.9-0.6,3.6-1.7,4.8-3.3c3-3.6,3.4-7.5,1.1-11.4
				C779,322.6,774.7,320.7,770.4,321.6z M775,325.6c3.3,1.4,4.8,5.3,3.3,8.5c-0.1,0.3-0.3,0.7-0.5,1c-0.4,0.6-1,1.1-1.6,1.5
				c-0.8,0.5-1.1,0.6-2.9,0.8s-2.1,0.2-3-0.2c-2.7-1.2-4.1-4-3.6-6.9c0.2-1.9,1.5-3.6,3.3-4.4C771.6,325.2,773.3,325.1,775,325.6
				L775,325.6z"/>
			
				<rect x="824" y="305.8" transform="matrix(0.9962 -8.715482e-02 8.715482e-02 0.9962 -25.2682 74.2611)" class="st0" width="27.6" height="41.4"/>
			<path d="M823.3,307.1c-6.5,1.7-11.8,6.4-14.2,12.7c-3,7.9-0.5,16.9,6.2,22.1c3.5,2.9,7.9,4.6,12.5,4.6c3.8,0,5.6-0.6,13-4.3
				c7.1-3.5,9.6-4.5,13.3-5c4.4-0.6,7.4-0.2,16.3,2.4c7.4,2.2,10.1,2.5,13.7,1.9c2.4-0.4,4.7-1.3,6.7-2.6c5.1-3.1,8.6-8.2,9.6-14.1
				c0.4-2.8,0.2-5.6-0.5-8.3c-0.7-2.2-1.7-4.3-3-6.1c-2.1-2.6-4.7-4.8-7.6-6.4c-3.3-1.7-7-2.3-10.7-1.8c-3.4,0.4-4.6,0.9-13.4,5.2
				c-9.5,4.6-14.4,5.1-24.6,2.2s-10.7-3-14.2-2.7C825.4,306.8,824.3,306.9,823.3,307.1z M828.7,310.7c1.9,0.2,3.3,0.6,8.5,2.1
				c3.5,1.2,7.2,2,10.8,2.4c6.3,0.6,11.4-0.5,19-4.2c1.5-0.7,3.8-1.8,5.1-2.5c4.2-2.1,6.6-2.7,9.5-2.5c8.8,0.4,15.7,7.8,15.3,16.6
				c-0.3,7.7-6.1,14.1-13.7,15.2c-3.1,0.4-5,0.1-12.2-2.1c-3.4-1.1-6.8-1.9-10.3-2.4c-1.9-0.2-3.9-0.2-5.8,0.1
				c-1.9,0.1-3.9,0.4-5.7,0.9c-3.7,1.2-7.2,2.8-10.6,4.6c-5.5,2.7-7.4,3.5-9.7,3.7c-10.9,0.9-19.2-8.9-16.7-19.9
				c0.9-4.1,3.5-7.6,7-9.8C822,311.1,825.4,310.3,828.7,310.7z"/>
			<path d="M825.5,316.8c-3.5,0.8-7,4.6-7.6,8.3c-1.2,6.8,6,13.2,12.6,11.1c1.9-0.6,3.6-1.7,4.8-3.3c3-3.6,3.4-7.5,1.1-11.4
				C834.1,317.8,829.7,315.9,825.5,316.8z M830,320.8c3.3,1.4,4.8,5.3,3.3,8.6c-0.1,0.3-0.3,0.7-0.5,1c-0.4,0.6-1,1.1-1.6,1.5
				c-0.8,0.5-1.1,0.6-2.9,0.8s-2.1,0.2-3-0.2c-2.7-1.2-4.1-4-3.6-6.9c0.3-1.9,1.5-3.6,3.3-4.4C826.6,320.4,828.3,320.3,830,320.8
				L830,320.8z"/>
			
				<rect x="879" y="301" transform="matrix(0.9962 -8.715482e-02 8.715482e-02 0.9962 -24.6406 79.0364)" class="st0" width="27.6" height="41.4"/>
			<path d="M878.3,302.3c-6.5,1.7-11.8,6.4-14.2,12.7c-3,7.9-0.5,16.9,6.2,22.1c3.5,2.9,7.9,4.6,12.5,4.6c3.8,0,5.6-0.6,13-4.3
				c7.1-3.5,9.6-4.5,13.3-5c4.4-0.6,7.4-0.2,16.3,2.4c7.4,2.2,10.1,2.5,13.7,1.9c2.4-0.4,4.7-1.3,6.7-2.6c5.1-3.1,8.6-8.2,9.6-14.1
				c0.4-2.8,0.2-5.6-0.5-8.3c-0.6-2.2-1.7-4.3-3-6.1c-2.1-2.6-4.7-4.8-7.6-6.4c-3.3-1.7-7-2.3-10.7-1.8c-3.4,0.4-4.6,0.9-13.4,5.2
				c-9.5,4.6-14.4,5.1-24.6,2.2s-10.7-3-14.2-2.7C880.4,302,879.4,302.1,878.3,302.3z M883.7,305.8c1.9,0.2,3.3,0.6,8.5,2.1
				c3.5,1.2,7.2,2,10.8,2.4c6.3,0.6,11.4-0.6,19-4.2c1.5-0.7,3.8-1.8,5-2.5c4.2-2.1,6.6-2.7,9.5-2.6c6,0.2,11.3,3.8,13.7,9.3
				c0.9,2,1.4,4.1,1.4,6.3c0.5,8.1-5.4,15.2-13.5,16.3c-3.1,0.4-5,0.1-12.2-2.1c-3.4-1.1-6.8-1.9-10.3-2.4c-1.9-0.2-3.9-0.2-5.8,0.1
				c-1.9,0.1-3.8,0.4-5.7,0.9c-3.7,1.2-7.2,2.8-10.6,4.6c-5.5,2.7-7.4,3.5-9.7,3.7c-10.9,0.9-19.2-8.9-16.7-19.9
				C868.9,310.3,875.9,305.2,883.7,305.8L883.7,305.8z"/>
			<path d="M880.5,311.9c-3.5,0.8-7,4.6-7.6,8.3c-1.2,6.9,6,13.2,12.6,11.1c1.9-0.6,3.6-1.7,4.8-3.3c3-3.6,3.4-7.5,1.1-11.4
				C889.1,313,884.8,311.1,880.5,311.9z M885,315.9c3.3,1.4,4.8,5.3,3.3,8.5c-0.1,0.3-0.3,0.7-0.5,1c-0.4,0.6-1,1.1-1.6,1.5
				c-0.8,0.5-1.1,0.6-2.9,0.8s-2.1,0.2-3-0.2c-2.7-1.2-4.1-4-3.6-6.9c0.3-1.9,1.5-3.6,3.3-4.4C881.6,315.6,883.4,315.5,885,315.9
				L885,315.9z"/>
			
				<rect x="934" y="296.2" transform="matrix(0.9962 -8.715482e-02 8.715482e-02 0.9962 -24.0129 83.8116)" class="st0" width="27.6" height="41.4"/>
			<path d="M933.4,297.4c-6.5,1.7-11.8,6.4-14.2,12.8c-3,7.9-0.5,16.9,6.2,22.1c3.5,2.9,8,4.6,12.5,4.6c3.8,0,5.6-0.6,13-4.3
				c7.1-3.5,9.6-4.5,13.3-5c4.4-0.6,7.4-0.2,16.3,2.4c7.4,2.2,10.1,2.5,13.7,1.9c2.4-0.4,4.7-1.3,6.7-2.6c5.1-3.1,8.6-8.2,9.6-14.1
				c0.4-2.8,0.2-5.6-0.5-8.3c-0.6-2.2-1.7-4.3-3-6.1c-2.1-2.6-4.7-4.8-7.6-6.4c-3.3-1.7-7-2.3-10.7-1.8c-3.4,0.4-4.6,0.9-13.4,5.2
				c-9.5,4.6-14.4,5.1-24.6,2.2s-10.7-3-14.2-2.7C935.4,297.2,934.4,297.3,933.4,297.4z M938.7,301c1.9,0.2,3.3,0.6,8.5,2.1
				c3.5,1.2,7.2,2,10.8,2.4c6.3,0.6,11.4-0.5,19-4.2c1.5-0.7,3.8-1.8,5.1-2.5c4.2-2.1,6.6-2.7,9.5-2.5c6,0.2,11.3,3.8,13.7,9.3
				c0.9,2,1.4,4.1,1.4,6.3c0.5,8.1-5.4,15.3-13.5,16.3c-3.1,0.4-5,0.1-12.2-2.1c-3.4-1.1-6.8-1.9-10.3-2.4c-1.9-0.2-3.9-0.2-5.8,0.1
				c-1.9,0.1-3.9,0.4-5.7,0.9c-3.7,1.2-7.2,2.8-10.6,4.6c-5.4,2.7-7.4,3.5-9.7,3.7c-10.9,0.9-19.2-8.9-16.7-19.9
				c0.9-4.1,3.4-7.6,7-9.8C932.1,301.5,935.4,300.7,938.7,301L938.7,301z"/>
			<path d="M935.5,307.1c-3.5,0.8-7,4.6-7.6,8.3c-1.2,6.8,6,13.2,12.6,11.1c1.9-0.6,3.6-1.7,4.8-3.3c3-3.6,3.4-7.5,1.1-11.4
				C944.1,308.2,939.8,306.3,935.5,307.1z M940,311.1c3.3,1.4,4.8,5.3,3.3,8.5c-0.1,0.3-0.3,0.7-0.5,1c-0.4,0.6-1,1.1-1.6,1.5
				c-0.8,0.5-1.1,0.6-2.9,0.8s-2.1,0.2-3-0.2c-2.7-1.2-4.2-4-3.6-6.9c0.2-1.9,1.5-3.6,3.3-4.4C936.7,310.8,938.4,310.7,940,311.1
				L940,311.1z"/>
			
				<rect x="995.3" y="289.7" transform="matrix(0.996 -8.963315e-02 8.963315e-02 0.996 -23.7699 91.7054)" class="st0" width="27.7" height="41.6"/>
			<path d="M988.4,292.6c-6.5,1.7-11.8,6.4-14.2,12.7c-3,7.9-0.5,16.9,6.2,22.1c3.5,2.9,7.9,4.6,12.5,4.6c3.8,0,5.6-0.6,13-4.3
				c7.1-3.5,9.6-4.5,13.3-5c4.4-0.6,7.4-0.2,16.3,2.4c7.4,2.2,10.1,2.5,13.7,1.9c2.4-0.4,4.7-1.3,6.7-2.6c5.1-3.1,8.6-8.2,9.6-14.1
				c0.4-2.8,0.2-5.6-0.5-8.3c-0.7-2.2-1.7-4.3-3-6.1c-2.1-2.6-4.7-4.8-7.6-6.4c-3.3-1.7-7.1-2.3-10.7-1.8c-3.4,0.4-4.6,0.9-13.4,5.2
				c-9.5,4.6-14.4,5.1-24.6,2.2s-10.7-3-14.2-2.7C990.5,292.4,989.4,292.5,988.4,292.6z M993.8,296.2c1.9,0.2,3.3,0.6,8.5,2.1
				c3.5,1.2,7.2,2,10.8,2.4c6.3,0.6,11.4-0.6,19-4.2l5.1-2.5c4.2-2.1,6.6-2.7,9.5-2.6c8.8,0.4,15.7,7.8,15.3,16.6
				c-0.3,7.7-6.1,14.1-13.7,15.2c-3.1,0.4-5,0.1-12.2-2.1c-3.4-1.1-6.8-1.9-10.3-2.4c-1.9-0.2-3.9-0.2-5.8,0.1
				c-1.9,0.1-3.9,0.4-5.7,0.9c-3.7,1.2-7.2,2.8-10.6,4.6c-5.5,2.7-7.4,3.5-9.7,3.7c-10.9,0.9-19.2-8.9-16.7-19.9
				C979.1,300.7,986.1,295.6,993.8,296.2L993.8,296.2z"/>
			<path d="M990.5,302.3c-3.5,0.8-7,4.6-7.6,8.3c-1.2,6.9,6,13.2,12.6,11.1c1.9-0.6,3.6-1.7,4.8-3.3c3-3.6,3.4-7.5,1.1-11.4
				C999.1,303.4,994.8,301.5,990.5,302.3z M995,306.3c3.3,1.4,4.8,5.3,3.3,8.6c-0.1,0.3-0.3,0.7-0.5,1c-0.5,0.6-1,1.1-1.6,1.5
				c-0.8,0.5-1.1,0.6-2.9,0.8s-2.1,0.2-3-0.2c-2.7-1.2-4.1-4-3.6-6.9c0.3-1.9,1.5-3.6,3.3-4.4C991.7,306,993.4,305.9,995,306.3
				L995,306.3z"/>
			
				<rect x="1044.1" y="286.6" transform="matrix(0.9962 -8.715482e-02 8.715482e-02 0.9962 -22.7573 93.3709)" class="st0" width="27.6" height="41.4"/>
			<path d="M1043.4,287.8c-6.5,1.7-11.8,6.4-14.2,12.7c-3,7.9-0.5,16.9,6.2,22.1c3.5,2.9,7.9,4.6,12.5,4.6c3.8,0,5.6-0.6,13-4.3
				c7.1-3.5,9.6-4.5,13.3-5c4.4-0.6,7.4-0.2,16.3,2.4c7.4,2.2,10.1,2.5,13.7,1.9c2.4-0.4,4.7-1.3,6.7-2.6c5.1-3.1,8.6-8.2,9.6-14.1
				c0.4-2.8,0.2-5.6-0.5-8.4c-0.6-2.2-1.7-4.3-3-6.1c-2.1-2.6-4.7-4.8-7.6-6.4c-3.3-1.7-7-2.3-10.7-1.8c-3.4,0.4-4.6,0.9-13.4,5.2
				c-9.5,4.6-14.4,5.1-24.6,2.2s-10.7-3-14.2-2.7C1045.5,287.5,1044.4,287.6,1043.4,287.8z M1048.8,291.4c1.9,0.2,3.3,0.6,8.5,2.1
				c3.5,1.2,7.2,2,10.8,2.4c6.3,0.6,11.4-0.5,19-4.2c1.5-0.7,3.8-1.9,5-2.5c4.2-2.1,6.6-2.7,9.5-2.5c6,0.2,11.3,3.8,13.7,9.3
				c0.9,2,1.4,4.1,1.4,6.3c0.5,8.1-5.4,15.3-13.5,16.3c-3.1,0.4-5,0.1-12.2-2.1c-3.4-1.1-6.8-1.9-10.3-2.4c-1.9-0.2-3.9-0.2-5.8,0.1
				c-1.9,0.1-3.9,0.4-5.7,0.9c-3.7,1.2-7.2,2.8-10.6,4.6c-5.5,2.7-7.4,3.5-9.7,3.7c-10.9,0.9-19.2-8.9-16.7-19.9
				c0.9-4.1,3.4-7.6,7-9.8C1042.1,291.9,1045.4,291.1,1048.8,291.4L1048.8,291.4z"/>
			<path d="M1045.5,297.5c-3.5,0.8-7,4.6-7.6,8.3c-1.2,6.8,6,13.2,12.6,11.1c1.9-0.6,3.6-1.7,4.8-3.3c3-3.6,3.4-7.5,1.1-11.4
				C1054.2,298.6,1049.8,296.7,1045.5,297.5z M1050.1,301.5c3.3,1.4,4.8,5.3,3.3,8.5c-0.1,0.3-0.3,0.7-0.5,1c-0.4,0.6-1,1.1-1.6,1.5
				c-0.8,0.5-1.1,0.6-2.9,0.8s-2.1,0.2-3-0.2c-2.7-1.2-4.1-4-3.6-6.9c0.2-1.9,1.5-3.6,3.3-4.4
				C1046.7,301.2,1048.4,301.1,1050.1,301.5L1050.1,301.5z"/>
			<polygon class="st0" points="1123,310.7 1108.9,316.4 1097.3,283 1124.8,280.6 			"/>
			<path d="M1098.4,283c-6.5,1.7-11.8,6.4-14.2,12.7c-3,7.9-0.5,16.9,6.2,22.1c3.5,2.9,8,4.6,12.5,4.6c3.8,0,5.6-0.6,13-4.3
				c7.1-3.5,9.6-4.5,13.3-5c4.4-0.6,7.4-0.2,16.3,2.4c7.4,2.2,10.1,2.5,13.7,1.9c2.4-0.4,4.7-1.3,6.7-2.6c5.1-3.1,8.6-8.2,9.6-14.1
				c0.4-2.8,0.2-5.6-0.5-8.4c-0.6-2.2-1.7-4.3-3-6.1c-2.1-2.6-4.7-4.8-7.6-6.4c-3.3-1.7-7-2.3-10.7-1.8c-3.4,0.4-4.6,0.9-13.4,5.2
				c-9.5,4.6-14.4,5.1-24.6,2.2s-10.7-3-14.2-2.7C1100.5,282.7,1099.4,282.8,1098.4,283z M1103.8,286.6c1.9,0.2,3.3,0.6,8.5,2.1
				c3.5,1.2,7.2,2,10.8,2.4c6.3,0.6,11.4-0.6,19-4.2l5.1-2.5c4.2-2.1,6.6-2.7,9.5-2.6c6,0.2,11.3,3.8,13.7,9.3
				c0.9,2,1.4,4.1,1.4,6.3c0.5,8.1-5.4,15.3-13.5,16.3c-3.1,0.4-5,0.1-12.2-2.1c-3.4-1.1-6.8-1.9-10.3-2.4c-1.9-0.2-3.9-0.2-5.8,0.1
				c-1.9,0.1-3.9,0.4-5.7,0.9c-3.7,1.2-7.2,2.8-10.6,4.6c-5.5,2.7-7.4,3.5-9.7,3.7c-10.9,0.9-19.2-8.9-16.7-19.9
				C1089,291.1,1096.1,286,1103.8,286.6L1103.8,286.6z"/>
			<path d="M1100.6,292.7c-3.5,0.8-7,4.6-7.6,8.3c-1.2,6.9,6,13.2,12.6,11.1c1.9-0.6,3.6-1.7,4.8-3.3c3-3.6,3.4-7.5,1.1-11.4
				C1109.2,293.7,1104.8,291.8,1100.6,292.7z M1105.1,296.7c3.3,1.5,4.8,5.3,3.3,8.6c-0.1,0.3-0.3,0.6-0.5,0.9
				c-0.4,0.6-1,1.1-1.6,1.5c-0.8,0.5-1.1,0.6-2.9,0.8s-2.1,0.2-3-0.2c-2.7-1.2-4.1-4-3.6-6.9c0.2-1.9,1.5-3.6,3.3-4.4
				C1101.7,296.3,1103.4,296.2,1105.1,296.7L1105.1,296.7z"/>
			<polygon class="st0" points="1153.4,308 1152.3,278.2 1183.1,277.8 1183.4,305.4 1174.3,313 1163.8,309.2 			"/>
			<path d="M1163.6,277.2c-6.6-1.1-13.4,1.1-18.1,5.9c-6,6-7.3,15.3-3.3,22.7c2,4.1,5.4,7.4,9.6,9.3c3.5,1.5,5.3,1.7,13.6,1.3
				c7.9-0.4,10.6-0.2,14.2,0.8c4.3,1.2,6.9,2.8,13.9,8.8c5.9,5,8.2,6.4,11.8,7.3c2.3,0.6,4.8,0.7,7.2,0.3c5.9-0.8,11.2-4,14.5-9
				c1.5-2.4,2.4-5.1,2.9-7.9c0.3-2.3,0.2-4.6-0.3-6.8c-0.8-3.2-2.3-6.3-4.4-8.9c-2.3-2.9-5.5-5-9.1-6c-3.3-1-4.5-1.1-14.4-0.7
				c-10.6,0.4-15.3-1.2-23.4-7.9s-8.6-7-11.9-8.2C1165.5,277.8,1164.6,277.5,1163.6,277.2z M1167.1,282.6c1.7,1,2.8,1.8,6.9,5.3
				c2.8,2.5,5.8,4.7,9,6.6c5.5,3.1,10.7,4.1,19.1,3.8c1.7,0,4.2-0.2,5.6-0.2c4.7-0.2,7.1,0.2,9.7,1.5c5.4,2.6,8.8,8,8.8,14
				c0,2.2-0.4,4.3-1.2,6.3c-2.9,7.6-11.1,11.8-18.9,9.5c-3-0.8-4.6-1.9-10.3-6.8c-2.6-2.4-5.5-4.5-8.5-6.3c-1.7-1-3.5-1.8-5.3-2.3
				c-1.8-0.7-3.7-1.2-5.6-1.5c-3.9-0.4-7.7-0.4-11.6-0.1c-6.1,0.3-8.2,0.2-10.3-0.5c-10.3-3.5-14-15.9-7.3-24.9
				C1151.8,280.8,1160.3,278.9,1167.1,282.6L1167.1,282.6z"/>
			<path d="M1161.6,286.9c-3.6-0.7-8.2,1.4-10.3,4.5c-3.8,5.8,0.2,14.5,7,15.3c2,0.3,4-0.1,5.8-1.1c4.2-2.1,6.1-5.5,5.6-10
				C1169.1,291.4,1165.9,287.9,1161.6,286.9z M1164.2,292.4c2.4,2.6,2.3,6.7-0.4,9.2c-0.3,0.3-0.6,0.5-0.9,0.7
				c-0.6,0.3-1.3,0.6-2,0.7c-1,0.2-1.2,0.1-3-0.5s-2-0.7-2.7-1.4c-2-2.1-2.2-5.4-0.5-7.7c1-1.7,2.8-2.7,4.8-2.7
				C1161.2,290.7,1162.9,291.3,1164.2,292.4z"/>
			
				<rect x="1200.6" y="304.7" transform="matrix(0.3219 -0.9468 0.9468 0.3219 526.6646 1372.2601)" class="st0" width="41.4" height="27.6"/>
			<path d="M1146.4,642c6.7-0.4,12.8-4,16.4-9.7c4.5-7.2,3.8-16.5-1.8-22.9c-2.9-3.6-6.9-6-11.4-6.9c-3.7-0.7-5.6-0.5-13.5,1.7
				c-7.7,2.1-10.3,2.5-14.1,2.3c-4.4-0.2-7.3-1.3-15.5-5.5c-6.8-3.5-9.4-4.5-13.1-4.5c-2.4-0.1-4.8,0.4-7.1,1.3
				c-5.6,2-10,6.4-12.2,12c-0.9,2.7-1.3,5.5-1.1,8.3c0.2,2.3,0.8,4.5,1.8,6.6c1.5,3,3.7,5.6,6.2,7.7c2.9,2.3,6.5,3.7,10.2,3.9
				c3.4,0.3,4.6,0,14.2-2.5c10.2-2.7,15.1-2.2,24.6,2.6s9.9,5,13.4,5.4C1144.4,641.8,1145.4,641.9,1146.4,642z M1141.9,637.4
				c-1.8-0.6-3.1-1.2-7.9-3.7c-3.2-1.8-6.6-3.3-10.2-4.5c-6.1-1.8-11.3-1.7-19.5,0.5l-5.5,1.5c-4.5,1.2-7,1.4-9.8,0.7
				c-8.6-2.1-13.9-10.7-11.8-19.3c1.8-7.5,8.7-12.6,16.3-12.2c3.1,0.2,4.9,0.8,11.6,4.4c3.1,1.7,6.3,3.2,9.7,4.3
				c1.8,0.6,3.8,1,5.7,1.1c1.9,0.3,3.9,0.4,5.8,0.2c3.8-0.5,7.6-1.3,11.3-2.5c5.9-1.6,7.9-2,10.2-1.7c10.9,1.2,17.1,12.5,12.6,22.7
				c-1.7,3.8-4.9,6.8-8.8,8.2C1148.4,638.2,1145,638.3,1141.9,637.4L1141.9,637.4z"/>
			<path d="M1146.2,632c3.6-0.1,7.7-3.2,9.1-6.7c2.5-6.5-3.4-14.1-10.2-13.3c-2,0.2-3.9,1-5.4,2.3c-3.6,2.9-4.8,6.8-3.3,11
				C1137.9,629.4,1141.8,632,1146.2,632z M1142.5,627.3c-2.9-2.1-3.7-6.1-1.6-9.1c0.2-0.3,0.4-0.6,0.7-0.8c0.6-0.5,1.2-0.9,1.9-1.2
				c0.9-0.4,1.2-0.4,3-0.2s2.1,0.3,2.9,0.8c2.4,1.6,3.3,4.7,2.2,7.4c-0.6,1.9-2.2,3.2-4.1,3.7C1145.7,628.2,1144,628,1142.5,627.3z"
				/>
			<polygon class="st0" points="1069.5,592.1 1097.4,610 1092.5,636.2 1065.1,633.3 			"/>
			<path d="M1091.5,636c6.7-0.4,12.8-4,16.4-9.7c4.5-7.2,3.8-16.5-1.8-22.9c-2.9-3.6-6.9-6-11.4-6.9c-3.7-0.7-5.6-0.5-13.5,1.7
				c-7.7,2.1-10.3,2.5-14,2.3c-4.4-0.2-7.3-1.3-15.5-5.5c-6.8-3.5-9.4-4.5-13.1-4.5c-2.4-0.1-4.8,0.4-7.1,1.3c-5.6,2-10,6.4-12.2,12
				c-0.9,2.7-1.3,5.5-1.1,8.3c0.2,2.3,0.8,4.5,1.8,6.6c1.5,3,3.6,5.6,6.2,7.7c2.9,2.3,6.5,3.7,10.2,3.9c3.5,0.2,4.6,0,14.2-2.5
				c10.2-2.7,15.1-2.2,24.6,2.6s9.9,5,13.4,5.4C1089.5,635.9,1090.5,636,1091.5,636z M1086.9,631.5c-1.8-0.6-3.1-1.2-8-3.7
				c-3.2-1.8-6.6-3.3-10.2-4.5c-6.1-1.8-11.3-1.7-19.5,0.5l-5.4,1.4c-4.5,1.2-7,1.4-9.8,0.7c-8.6-2.1-13.9-10.7-11.8-19.3
				c1.8-7.5,8.7-12.7,16.4-12.3c3.1,0.2,4.9,0.8,11.6,4.4c3.1,1.7,6.3,3.2,9.7,4.3c1.8,0.6,3.8,0.9,5.7,1c1.9,0.3,3.9,0.4,5.8,0.2
				c3.8-0.5,7.6-1.3,11.3-2.5c5.9-1.6,7.9-2,10.2-1.7c10.9,1.2,17.1,12.5,12.6,22.7c-1.7,3.8-4.9,6.8-8.8,8.2
				C1093.5,632.2,1090.1,632.4,1086.9,631.5z"/>
			<path d="M1091.3,626.1c3.6-0.1,7.7-3.2,9.1-6.7c2.5-6.5-3.4-14.1-10.2-13.3c-2,0.2-3.9,1-5.4,2.3c-3.6,2.9-4.8,6.8-3.3,11
				C1083,623.4,1086.9,626.1,1091.3,626.1z M1087.6,621.4c-2.9-2.1-3.7-6.1-1.6-9.1c0.2-0.3,0.4-0.6,0.7-0.8
				c0.6-0.5,1.2-0.9,1.8-1.2c0.9-0.4,1.2-0.4,3-0.2s2.1,0.3,2.9,0.8c2.4,1.7,3.3,4.8,2.2,7.4c-0.6,1.9-2.2,3.2-4.1,3.7
				C1090.8,622.3,1089.1,622.1,1087.6,621.4L1087.6,621.4z"/>
			
				<rect x="1005.4" y="594.5" transform="matrix(0.1071 -0.9942 0.9942 0.1071 311.3423 1563.321)" class="st0" width="41.4" height="27.6"/>
			<path d="M1036.6,630.1c6.7-0.4,12.8-4,16.4-9.7c4.5-7.2,3.8-16.5-1.8-22.9c-2.9-3.6-6.9-6-11.4-6.9c-3.7-0.7-5.6-0.5-13.5,1.7
				c-7.7,2.1-10.3,2.5-14,2.3c-4.4-0.2-7.3-1.3-15.5-5.5c-6.8-3.5-9.4-4.5-13.1-4.5c-2.4-0.1-4.8,0.4-7.1,1.3c-5.6,2-10,6.4-12.2,12
				c-0.9,2.7-1.3,5.5-1.1,8.3c0.2,2.3,0.8,4.5,1.8,6.6c1.5,3,3.6,5.6,6.2,7.7c2.9,2.3,6.5,3.7,10.2,3.9c3.5,0.2,4.7,0,14.2-2.5
				c10.2-2.7,15.1-2.2,24.6,2.6c9.4,4.8,9.9,5,13.4,5.4C1034.6,630,1035.6,630.1,1036.6,630.1z M1032,625.6
				c-1.8-0.6-3.1-1.2-7.9-3.7c-3.2-1.8-6.6-3.3-10.2-4.5c-6.1-1.8-11.3-1.7-19.5,0.5l-5.4,1.4c-4.5,1.2-7,1.4-9.8,0.7
				c-8.6-2.1-13.9-10.7-11.8-19.3c1.8-7.5,8.7-12.6,16.3-12.2c3.1,0.2,4.9,0.8,11.6,4.4c3.1,1.7,6.3,3.2,9.7,4.3
				c1.8,0.6,3.8,1,5.7,1.1c1.9,0.3,3.9,0.4,5.8,0.2c3.8-0.5,7.6-1.3,11.3-2.5c5.9-1.6,7.9-2,10.2-1.7c10.9,1.2,17.1,12.5,12.6,22.7
				c-1.7,3.8-4.9,6.8-8.8,8.2C1038.6,626.4,1035.2,626.5,1032,625.6L1032,625.6z"/>
			<path d="M1036.4,620.2c3.6-0.1,7.7-3.2,9.1-6.7c2.5-6.5-3.4-14.1-10.2-13.3c-2,0.2-3.9,1-5.4,2.3c-3.6,2.9-4.8,6.8-3.3,11
				C1028.1,617.5,1032,620.2,1036.4,620.2z M1032.7,615.4c-2.9-2.1-3.7-6.1-1.6-9.1c0.2-0.3,0.4-0.6,0.7-0.8
				c0.6-0.5,1.2-0.9,1.8-1.2c0.9-0.4,1.2-0.4,3-0.2s2.1,0.3,2.9,0.8c2.4,1.6,3.3,4.7,2.2,7.4c-0.6,1.9-2.2,3.3-4.1,3.7
				C1035.9,616.4,1034.2,616.2,1032.7,615.4L1032.7,615.4z"/>
			
				<rect x="950.5" y="588.6" transform="matrix(0.1071 -0.9942 0.9942 0.1071 268.2304 1503.4792)" class="st0" width="41.4" height="27.6"/>
			<path d="M981.7,624.2c6.7-0.4,12.8-4,16.4-9.7c4.5-7.2,3.8-16.5-1.8-22.9c-2.9-3.6-6.9-6-11.4-6.9c-3.7-0.7-5.6-0.5-13.5,1.7
				c-7.7,2.1-10.3,2.5-14,2.3c-4.4-0.2-7.3-1.3-15.5-5.5c-6.8-3.5-9.4-4.5-13.1-4.5c-2.4-0.1-4.8,0.4-7.1,1.3c-5.6,2-10,6.4-12.2,12
				c-0.9,2.7-1.3,5.5-1.1,8.3c0.2,2.3,0.8,4.5,1.8,6.6c1.5,3,3.6,5.6,6.2,7.7c2.9,2.3,6.5,3.7,10.2,3.9c3.5,0.2,4.7,0,14.2-2.5
				c10.2-2.7,15.1-2.2,24.6,2.6s9.9,5,13.4,5.4C979.7,624.1,980.7,624.2,981.7,624.2z M977.1,619.6c-1.8-0.6-3.1-1.2-7.9-3.7
				c-3.2-1.8-6.6-3.3-10.2-4.5c-6.1-1.8-11.3-1.7-19.4,0.5c-1.6,0.4-4.1,1.1-5.4,1.4c-4.5,1.2-7,1.4-9.8,0.7
				c-5.8-1.3-10.4-5.9-11.7-11.8c-0.5-2.1-0.6-4.3-0.2-6.4c1.1-8.1,8.3-13.9,16.4-13.4c3.1,0.2,4.9,0.8,11.6,4.4
				c3.1,1.7,6.3,3.2,9.7,4.3c1.8,0.6,3.8,1,5.7,1.1c1.9,0.3,3.9,0.4,5.8,0.2c3.8-0.5,7.6-1.3,11.3-2.5c5.9-1.6,7.9-2,10.2-1.7
				c10.9,1.2,17.1,12.5,12.6,22.7c-1.7,3.8-4.9,6.8-8.8,8.2C983.7,620.5,980.3,620.6,977.1,619.6L977.1,619.6z"/>
			<path d="M981.4,614.3c3.6-0.1,7.7-3.2,9.1-6.7c2.5-6.5-3.4-14.1-10.2-13.3c-2,0.2-3.9,1-5.4,2.3c-3.6,2.9-4.8,6.8-3.3,11
				C973.2,611.6,977.1,614.3,981.4,614.3z M977.7,609.5c-2.9-2.1-3.7-6.1-1.6-9.1c0.2-0.3,0.4-0.6,0.7-0.8c0.5-0.5,1.2-0.9,1.8-1.2
				c0.9-0.4,1.2-0.4,3-0.2s2.1,0.3,2.9,0.8c2.4,1.7,3.3,4.8,2.2,7.4c-0.6,1.9-2.2,3.2-4.1,3.7C981,610.5,979.3,610.2,977.7,609.5
				L977.7,609.5z"/>
			
				<rect x="895.5" y="582.7" transform="matrix(0.1071 -0.9942 0.9942 0.1071 225.0391 1443.5302)" class="st0" width="41.4" height="27.6"/>
			<path d="M926.8,618.3c6.7-0.4,12.8-4,16.4-9.7c4.5-7.2,3.8-16.5-1.8-22.9c-2.9-3.6-6.9-6-11.4-6.9c-3.7-0.7-5.6-0.5-13.5,1.7
				c-7.7,2.1-10.3,2.5-14,2.3c-4.4-0.2-7.3-1.3-15.5-5.5c-6.8-3.5-9.5-4.5-13.1-4.5c-2.4-0.1-4.8,0.4-7.1,1.3c-5.6,2-10,6.4-12.1,12
				c-0.9,2.7-1.3,5.5-1.1,8.3c0.2,2.3,0.8,4.5,1.8,6.6c1.5,3,3.6,5.6,6.2,7.7c2.9,2.3,6.5,3.7,10.2,3.9c3.5,0.2,4.7,0,14.2-2.5
				c10.2-2.7,15.1-2.2,24.6,2.6s9.9,5,13.4,5.4C924.8,618.2,925.8,618.3,926.8,618.3z M922.2,613.7c-1.8-0.6-3.1-1.2-7.9-3.7
				c-3.2-1.8-6.6-3.3-10.2-4.5c-6.1-1.8-11.3-1.7-19.4,0.5l-5.4,1.4c-4.5,1.2-7,1.4-9.8,0.7c-5.8-1.3-10.4-5.9-11.7-11.7
				c-0.5-2.1-0.6-4.3-0.2-6.4c1.1-8.1,8.3-13.9,16.4-13.4c3.1,0.2,4.9,0.8,11.6,4.4c3.1,1.7,6.3,3.2,9.7,4.3c1.8,0.6,3.8,1,5.7,1.1
				c1.9,0.3,3.9,0.4,5.8,0.2c3.8-0.5,7.6-1.3,11.3-2.5c5.9-1.6,7.9-2,10.2-1.7c10.9,1.2,17.1,12.5,12.6,22.7
				c-1.7,3.8-4.9,6.8-8.8,8.2C928.8,614.6,925.4,614.7,922.2,613.7z"/>
			<path d="M926.5,608.4c3.6-0.1,7.7-3.2,9.1-6.7c2.5-6.5-3.4-14.1-10.2-13.3c-2,0.2-3.9,1-5.4,2.3c-3.6,2.9-4.8,6.8-3.3,11
				C918.3,605.7,922.2,608.4,926.5,608.4z M922.8,603.6c-2.9-2-3.7-6.1-1.6-9c0.2-0.3,0.4-0.6,0.7-0.8c0.5-0.5,1.2-0.9,1.8-1.2
				c0.9-0.4,1.2-0.4,3-0.2s2.1,0.3,2.9,0.8c2.4,1.7,3.3,4.7,2.2,7.4c-0.6,1.9-2.2,3.2-4.1,3.7C926.1,604.6,924.4,604.3,922.8,603.6
				L922.8,603.6z"/>
			
				<rect x="840.6" y="576.8" transform="matrix(0.1071 -0.9942 0.9942 0.1071 181.9279 1383.688)" class="st0" width="41.4" height="27.6"/>
			<path d="M871.9,612.4c6.7-0.4,12.8-4,16.4-9.7c4.5-7.2,3.8-16.5-1.8-22.9c-2.9-3.6-6.9-6-11.4-6.9c-3.7-0.7-5.6-0.5-13.5,1.7
				c-7.7,2.1-10.3,2.5-14,2.3c-4.4-0.2-7.3-1.3-15.5-5.5c-6.8-3.5-9.5-4.5-13.1-4.5c-2.4-0.1-4.8,0.4-7.1,1.3c-5.6,2-10,6.4-12.1,12
				c-0.9,2.7-1.3,5.5-1.1,8.3c0.2,2.3,0.8,4.5,1.8,6.6c1.5,3,3.6,5.6,6.2,7.7c2.9,2.3,6.5,3.7,10.2,3.9c3.5,0.2,4.7,0,14.2-2.5
				c10.2-2.7,15.1-2.2,24.6,2.6s9.9,5,13.4,5.4C869.9,612.3,870.9,612.4,871.9,612.4z M867.3,607.8c-1.8-0.6-3.1-1.2-7.9-3.7
				c-3.2-1.8-6.6-3.3-10.2-4.5c-6.1-1.8-11.3-1.7-19.4,0.5l-5.4,1.4c-4.5,1.2-7,1.4-9.8,0.7c-5.8-1.3-10.4-5.9-11.7-11.8
				c-0.5-2.1-0.6-4.3-0.2-6.4c1.1-8.1,8.3-13.9,16.4-13.4c3.1,0.2,4.9,0.8,11.6,4.4c3.1,1.7,6.3,3.2,9.7,4.3c1.8,0.6,3.8,1,5.7,1.1
				c1.9,0.3,3.8,0.4,5.8,0.2c3.8-0.5,7.6-1.3,11.3-2.5c5.9-1.6,7.9-2,10.2-1.7c10.9,1.2,17.1,12.5,12.6,22.7
				c-1.7,3.8-4.9,6.8-8.8,8.2C873.9,608.6,870.5,608.8,867.3,607.8L867.3,607.8z"/>
			<path d="M871.6,602.5c4-0.4,7.5-3,9.1-6.7c2.5-6.5-3.4-14.1-10.2-13.3c-2,0.2-3.9,1-5.4,2.3c-3.6,2.9-4.8,6.8-3.3,11
				C863.4,599.8,867.3,602.5,871.6,602.5z M867.9,597.7c-2.9-2-3.7-6.1-1.6-9c0.2-0.3,0.5-0.6,0.7-0.9c0.5-0.5,1.2-0.9,1.8-1.2
				c0.9-0.4,1.2-0.4,3-0.2s2.1,0.3,2.9,0.8c2.4,1.7,3.3,4.8,2.2,7.4c-0.6,1.8-2.2,3.2-4.1,3.7C871.2,598.7,869.5,598.4,867.9,597.7
				L867.9,597.7z"/>
			
				<rect x="785.8" y="570.8" transform="matrix(0.1071 -0.9942 0.9942 0.1071 138.8142 1323.8474)" class="st0" width="41.4" height="27.6"/>
			<path d="M816.9,606.5c6.7-0.4,12.8-4,16.4-9.7c4.5-7.2,3.8-16.5-1.8-22.9c-2.9-3.6-6.9-6-11.4-6.9c-3.7-0.7-5.6-0.5-13.5,1.7
				c-7.7,2.1-10.3,2.5-14.1,2.3c-4.4-0.2-7.3-1.3-15.5-5.5c-6.8-3.5-9.4-4.5-13.1-4.5c-2.4-0.1-4.8,0.4-7.1,1.3
				c-5.6,2-10,6.4-12.2,12c-0.9,2.7-1.3,5.5-1.1,8.3c0.2,2.3,0.8,4.5,1.8,6.6c1.5,3,3.6,5.6,6.2,7.7c2.9,2.3,6.5,3.7,10.2,3.9
				c3.5,0.2,4.6,0,14.2-2.5c10.2-2.7,15.1-2.2,24.6,2.6s9.9,5,13.4,5.4C814.9,606.4,815.9,606.4,816.9,606.5z M812.4,601.9
				c-1.8-0.6-3.1-1.2-7.9-3.7c-3.2-1.8-6.6-3.3-10.2-4.5c-6.1-1.8-11.3-1.7-19.4,0.5l-5.4,1.4c-4.5,1.2-7,1.4-9.8,0.7
				c-5.8-1.3-10.4-5.9-11.7-11.7c-0.5-2.1-0.6-4.3-0.2-6.4c1.1-8.1,8.3-13.9,16.4-13.4c3.1,0.2,4.9,0.8,11.6,4.4
				c3.1,1.7,6.3,3.2,9.7,4.3c1.8,0.6,3.8,1,5.7,1.1c1.9,0.3,3.9,0.4,5.8,0.2c3.8-0.5,7.6-1.3,11.3-2.5c5.9-1.6,7.9-2,10.2-1.7
				c10.9,1.2,17.1,12.5,12.6,22.7c-1.7,3.8-4.8,6.8-8.8,8.2C819,602.7,815.6,602.8,812.4,601.9L812.4,601.9z"/>
			<path d="M816.7,596.5c3.6-0.1,7.7-3.2,9.1-6.7c2.5-6.5-3.4-14.1-10.2-13.3c-2,0.2-3.9,1-5.4,2.3c-3.6,2.9-4.8,6.8-3.3,11
				C808.5,593.9,812.4,596.6,816.7,596.5z M813,591.8c-2.9-2-3.7-6.1-1.6-9c0.2-0.3,0.5-0.6,0.7-0.9c0.5-0.5,1.2-0.9,1.8-1.2
				c0.9-0.4,1.2-0.4,3-0.2s2.1,0.3,2.9,0.8c2.4,1.7,3.3,4.7,2.2,7.4c-0.6,1.9-2.2,3.2-4.1,3.7C816.3,592.7,814.6,592.5,813,591.8
				L813,591.8z"/>
			
				<rect x="730.8" y="564.9" transform="matrix(0.1071 -0.9942 0.9942 0.1071 95.6325 1263.9088)" class="st0" width="41.4" height="27.6"/>
			<path d="M762,600.6c6.7-0.4,12.8-4,16.4-9.7c4.5-7.2,3.8-16.5-1.8-22.9c-2.9-3.6-6.9-6-11.4-6.9c-3.7-0.7-5.6-0.5-13.5,1.7
				c-7.7,2.1-10.3,2.5-14,2.3c-4.4-0.2-7.3-1.3-15.5-5.5c-6.8-3.5-9.5-4.5-13.1-4.5c-2.4-0.1-4.8,0.4-7.1,1.3c-5.6,2-10,6.4-12.2,12
				c-0.9,2.7-1.3,5.5-1.1,8.3c0.2,2.3,0.8,4.5,1.8,6.6c1.5,3,3.6,5.6,6.2,7.7c2.9,2.3,6.5,3.7,10.2,3.9c3.5,0.3,4.7,0,14.2-2.5
				c10.2-2.7,15.1-2.2,24.5,2.6s9.9,5,13.4,5.4C760,600.4,761,600.5,762,600.6z M757.5,596c-1.8-0.6-3.1-1.2-7.9-3.7
				c-3.2-1.8-6.6-3.3-10.2-4.5c-6.1-1.8-11.3-1.7-19.5,0.5l-5.5,1.4c-4.5,1.2-7,1.4-9.8,0.7c-5.8-1.3-10.4-5.9-11.7-11.8
				c-0.5-2.1-0.6-4.3-0.2-6.4c1.1-8.1,8.3-13.9,16.4-13.4c3.1,0.2,4.9,0.8,11.5,4.4c3.1,1.7,6.3,3.2,9.7,4.3c1.8,0.6,3.8,1,5.7,1.1
				c1.9,0.3,3.9,0.4,5.8,0.2c3.8-0.5,7.6-1.3,11.3-2.5c5.9-1.6,7.9-2,10.2-1.7c10.9,1.2,17.1,12.5,12.6,22.7
				c-1.7,3.8-4.8,6.8-8.8,8.2C764,596.8,760.6,596.9,757.5,596L757.5,596z"/>
			<path d="M761.8,590.6c4-0.4,7.5-3,9.1-6.7c2.5-6.5-3.4-14.1-10.2-13.3c-2,0.2-3.9,1-5.4,2.3c-3.6,2.9-4.8,6.8-3.3,11
				C753.6,587.9,757.5,590.6,761.8,590.6z M758.1,585.9c-2.9-2-3.7-6.1-1.6-9c0.2-0.3,0.5-0.6,0.7-0.9c0.5-0.5,1.2-0.9,1.8-1.2
				c0.9-0.4,1.2-0.4,3-0.2s2.1,0.3,2.9,0.8c2.4,1.6,3.3,4.7,2.2,7.4c-0.6,1.9-2.2,3.2-4.1,3.7C761.4,586.8,759.7,586.6,758.1,585.9z
				"/>
			
				<rect x="675.8" y="559" transform="matrix(0.1071 -0.9942 0.9942 0.1071 52.441 1203.9597)" class="st0" width="41.4" height="27.6"/>
			<path d="M721.7,562c-2.9-3.6-6.9-6-11.4-6.9c-3.7-0.7-5.6-0.5-13.5,1.7c-7.7,2.1-10.3,2.5-14.1,2.3c-4.4-0.2-7.3-1.3-15.5-5.5
				c-6.8-3.5-9.5-4.5-13.1-4.5c-2.4-0.1-4.8,0.4-7.1,1.3c-5.6,2-10,6.4-12.2,12c-0.9,2.7-1.3,5.5-1.1,8.3c0.2,2.3,0.8,4.5,1.8,6.6
				c1.5,3,3.6,5.6,6.2,7.7c2.9,2.3,6.5,3.7,10.2,3.9c3.5,0.2,4.7,0,14.2-2.5c10.2-2.7,15.1-2.2,24.5,2.6s9.9,5,13.4,5.4
				c1.1,0.1,2.1,0.2,3.1,0.2c6.7-0.4,12.8-4,16.4-9.7C728,577.7,727.3,568.4,721.7,562z M721,581.5c-1.7,3.8-4.8,6.8-8.8,8.2
				c-3,1.2-6.5,1.3-9.7,0.4c-1.8-0.6-3.1-1.2-7.9-3.7c-3.2-1.8-6.7-3.3-10.2-4.5c-4.7-1.4-8.9-1.6-14.3-0.7
				c-0.1,0.1-0.3,0.3-0.5,0.4c-1.1,0.7-2.2,1.3-3.4,1.7c-0.7,0.4-1.4,0.8-2.2,1c-1.2,0.6-2.5,1-3.8,1c-0.4,0.1-0.8,0.1-1.2,0
				c-0.5,0-0.9-0.1-1.4-0.2c-0.5-0.1-0.8-0.3-1.1-0.6c-2.8,0.6-4.8,0.6-6.9,0c-5.8-1.3-10.4-5.9-11.7-11.7c-0.5-2.1-0.6-4.3-0.2-6.4
				c1.1-8.1,8.3-13.9,16.4-13.4c1.7,0.1,3.1,0.3,5,1.2c0.4-0.3,0.8-0.4,1.4-0.5c0.5,0,0.9,0,1.4,0c0.2-0.1,0.5-0.1,0.8-0.1
				c0.5,0,0.9,0.1,1.3,0.3c0.4,0.1,0.8,0.2,1,0.4c3.2,1,6,3.3,7.6,6.4c0.9,0.3,1.7,0.7,2.6,0.9c1.8,0.6,3.8,1,5.7,1.1
				c1.9,0.3,3.9,0.4,5.8,0.2c3.8-0.5,7.6-1.3,11.3-2.5c5.9-1.6,7.9-2,10.2-1.7C719.3,560,725.5,571.3,721,581.5z"/>
			<path d="M706.9,584.7c3.6-0.1,7.7-3.2,9.1-6.7c2.5-6.5-3.4-14.1-10.2-13.3c-2,0.2-3.9,1-5.4,2.3c-3.6,2.9-4.8,6.8-3.3,11
				C698.6,582,702.5,584.7,706.9,584.7z M703.2,580c-2.9-2-3.7-6.1-1.6-9c0.2-0.3,0.5-0.6,0.7-0.9c0.6-0.5,1.2-0.9,1.8-1.2
				c0.9-0.4,1.2-0.4,3-0.2s2.1,0.3,2.9,0.8c2.4,1.7,3.3,4.7,2.2,7.4c-0.6,1.9-2.2,3.2-4.1,3.7C706.5,580.9,704.7,580.7,703.2,580z"
				/>
			<path class="st0" d="M660.7,553.7c0.5,0,0.9,0,1.4,0c0.2-0.1,0.5-0.1,0.8-0.1c0.1,0,0.3,0,0.4,0l0.6-5.1l-27.7-3.1l-4.6,41.4
				l27.7,3.1l0.5-4.5c-0.2,0-0.4,0-0.6-0.1c-0.5,0-1-0.1-1.4-0.2c-3.1-0.9-1.8-5.7,1.3-4.8c0.2,0,0.3,0.1,0.5,0.1
				c0.3-0.1,0.5-0.2,0.8-0.3l2.4-21.2c-0.6-0.1-1.3-0.2-2-0.2C657.4,558.8,657.5,553.8,660.7,553.7z"/>
			<path d="M672.6,555.2c-3.3-3.2-7.6-5.2-12.1-5.6c-3.8-0.3-5.6,0.2-13.3,3.2c-7.4,3-9.9,3.7-13.7,3.9c-4.4,0.3-7.4-0.4-16-3.7
				c-7.2-2.8-9.9-3.3-13.5-3c-2.4,0.2-4.7,0.9-6.9,2.1c-5.3,2.7-9.2,7.5-10.7,13.2c-0.6,2.8-0.6,5.6-0.1,8.4
				c0.5,2.2,1.3,4.4,2.5,6.3c1.9,2.8,4.3,5.2,7.1,7c3.2,1.9,6.8,2.9,10.5,2.7c3.5-0.2,4.6-0.5,13.8-4.1c9.8-3.9,14.8-3.9,24.7-0.2
				s10.4,3.8,13.9,3.8c1.1,0.1,2.1,0.1,3.1,0c6.6-1.2,12.3-5.5,15.1-11.5C680.6,570.1,678.8,560.9,672.6,555.2z M674.3,574.4
				c-0.7,2.4-2.1,4.6-3.9,6.4c-0.2,0.3-0.4,0.6-0.8,0.8c-0.1,0.1-0.3,0.2-0.5,0.3c-0.8,0.7-1.7,1.2-2.7,1.7
				c-1.7,0.9-3.6,1.5-5.5,1.7c-0.1,0-0.1,0-0.2,0c-0.3,0-0.5,0.1-0.8,0.1c0,0,0,0-0.1,0c-1,0-2.1,0-3.1-0.2
				c-1.9-0.4-3.2-0.8-8.3-2.8c-3.4-1.4-7-2.5-10.6-3.2c-6.2-1.1-11.4-0.3-19.3,2.7c-1.6,0.6-3.9,1.5-5.2,2c-4.4,1.7-6.8,2.2-9.7,1.8
				c-5.9-0.7-11-4.7-12.9-10.3c-3-8.4,1.3-17.6,9.6-20.6c1.3-0.5,2.8-0.8,4.2-0.9c3.1-0.2,5,0.3,12,3c3.3,1.4,6.6,2.4,10.1,3.2
				c1.9,0.4,3.8,0.5,5.8,0.4c1.9,0.1,3.9-0.1,5.8-0.5c3.8-0.9,7.5-2.2,11-3.8c5.7-2.3,7.6-2.9,9.9-2.9c1.2,0,2.3,0.1,3.4,0.3
				c0.1,0,0.1,0,0.2,0c0.5,0,0.9,0.1,1.3,0.3c0.4,0.1,0.7,0.2,1,0.4c3.3,1.1,6.2,3.4,7.8,6.7C675.1,564.8,675.8,569.6,674.3,574.4z"
				/>
			<path d="M660.5,579.4c3.6-0.5,7.3-4,8.2-7.7c1.7-6.7-5-13.6-11.7-12.1c-2,0.4-3.7,1.4-5.1,2.9c-3.3,3.3-4,7.3-2,11.3
				C652,577.7,656.2,579.9,660.5,579.4z M656.3,575.1c-3.1-1.7-4.3-5.7-2.6-8.8c0.2-0.3,0.4-0.6,0.6-0.9c0.5-0.5,1.1-1,1.7-1.4
				c0.8-0.5,1.1-0.5,3-0.5s2.1,0,3,0.5c2.6,1.4,3.8,4.3,3,7.1c-0.4,1.9-1.8,3.5-3.6,4.1C659.7,575.7,657.9,575.7,656.3,575.1z"/>
			
				<rect x="580" y="548.4" transform="matrix(1 -7.853364e-03 7.853364e-03 1 -4.4512 4.681)" class="st0" width="27.6" height="41.4"/>
			<path d="M607.1,590c6.7-0.8,12.6-4.7,15.8-10.6c4.1-7.4,2.8-16.7-3.1-22.8c-3.1-3.4-7.2-5.6-11.8-6.3c-3.8-0.5-5.6-0.2-13.4,2.4
				c-7.5,2.5-10.1,3.1-13.9,3.1c-4.4,0-7.4-0.8-15.8-4.6c-7-3.2-9.7-3.9-13.3-3.8c-2.4,0.1-4.8,0.6-7,1.7c-5.5,2.3-9.7,7-11.5,12.6
				c-0.7,2.7-1,5.5-0.6,8.3c0.4,2.3,1.1,4.5,2.2,6.5c1.7,2.9,4,5.4,6.7,7.4c3,2.1,6.7,3.3,10.4,3.3c3.5,0,4.7-0.2,14-3.3
				c10-3.3,15-3,24.7,1.2s10.2,4.4,13.7,4.7C605,590,606,590.1,607.1,590z M602.2,585.8c-1.9-0.5-3.2-1-8.1-3.2
				c-3.3-1.6-6.8-2.9-10.4-3.9c-6.2-1.5-11.4-1-19.4,1.6c-1.6,0.5-4,1.3-5.3,1.7c-4.4,1.5-6.9,1.8-9.8,1.2c-5.9-1-10.7-5.3-12.3-11
				c-0.6-2.1-0.8-4.3-0.6-6.4c0.7-8.1,7.5-14.4,15.6-14.3c3.1,0,5,0.6,11.8,3.7c3.2,1.5,6.5,2.8,9.9,3.8c1.9,0.5,3.8,0.7,5.8,0.7
				c1.9,0.2,3.9,0.2,5.8-0.1c3.8-0.7,7.5-1.7,11.2-3.1c5.8-2,7.8-2.4,10.1-2.3c10.9,0.6,17.8,11.5,13.9,22c-1.5,3.9-4.5,7-8.3,8.7
				C608.9,586.2,605.5,586.5,602.2,585.8z"/>
			<path d="M606.3,580.2c3.6-0.3,7.5-3.6,8.7-7.2c2.1-6.6-4.2-13.9-11-12.8c-2,0.3-3.8,1.2-5.2,2.6c-3.5,3.1-4.4,7-2.6,11.1
				C597.8,578,601.9,580.5,606.3,580.2z M602.3,575.6c-3.1-1.9-4-5.9-2.1-8.9c0.2-0.3,0.4-0.6,0.6-0.9c0.5-0.5,1.1-0.9,1.8-1.3
				c0.9-0.4,1.2-0.4,3-0.3s2.1,0.1,2.9,0.6c2.5,1.5,3.6,4.6,2.6,7.3c-0.5,1.9-2,3.4-3.8,3.9C605.6,576.4,603.9,576.3,602.3,575.6
				L602.3,575.6z"/>
			
				<rect x="519.4" y="552.3" transform="matrix(5.024810e-02 -0.9987 0.9987 5.024810e-02 -52.3866 1077.1101)" class="st0" width="41.4" height="27.6"/>
			<path d="M551.9,587.3c6.7-0.8,12.6-4.7,15.8-10.6c4.1-7.4,2.8-16.7-3.1-22.8c-3.1-3.4-7.2-5.6-11.8-6.3
				c-3.8-0.5-5.6-0.2-13.4,2.4c-7.5,2.5-10.1,3.1-13.9,3.1c-4.4,0-7.4-0.8-15.8-4.6c-7-3.2-9.7-3.9-13.3-3.8c-2.4,0.1-4.8,0.6-7,1.7
				c-5.5,2.3-9.7,7-11.5,12.6c-0.7,2.7-0.9,5.5-0.6,8.3c0.4,2.3,1.1,4.5,2.2,6.5c1.7,2.9,4,5.4,6.7,7.4c3,2.1,6.7,3.3,10.4,3.3
				c3.5,0,4.6-0.2,14-3.3c10-3.3,15-3,24.7,1.2s10.2,4.4,13.7,4.7C549.9,587.2,550.9,587.3,551.9,587.3z M547.1,583
				c-1.9-0.5-3.2-1-8.1-3.2c-3.3-1.6-6.8-2.9-10.4-3.9c-6.2-1.5-11.4-1-19.4,1.6c-1.6,0.5-4,1.3-5.3,1.8c-4.5,1.5-6.9,1.8-9.8,1.2
				c-5.9-1-10.7-5.3-12.3-11.1c-2.5-8.5,2.3-17.5,10.9-20c1.4-0.4,2.8-0.6,4.2-0.7c3.1,0,5,0.6,11.8,3.7c3.2,1.5,6.5,2.8,9.9,3.8
				c1.9,0.5,3.8,0.7,5.8,0.7c1.9,0.2,3.9,0.2,5.8-0.1c3.8-0.7,7.5-1.8,11.2-3.1c5.8-2,7.8-2.4,10.1-2.3c10.9,0.6,17.8,11.5,13.8,22
				c-1.5,3.9-4.5,7-8.3,8.7C553.7,583.4,550.3,583.7,547.1,583L547.1,583z"/>
			<path d="M551.1,577.4c3.6-0.3,7.5-3.6,8.7-7.2c2.1-6.6-4.2-13.9-10.9-12.7c-2,0.3-3.8,1.2-5.2,2.6c-3.5,3.1-4.4,7-2.6,11.1
				C542.7,575.1,546.8,577.6,551.1,577.4z M547.2,572.8c-3.1-1.9-4-5.8-2.2-8.9c0.2-0.3,0.4-0.6,0.7-0.9c0.5-0.5,1.1-0.9,1.8-1.3
				c0.9-0.4,1.2-0.4,3-0.3s2.1,0.1,2.9,0.7c2.5,1.5,3.6,4.6,2.6,7.3c-0.5,1.9-2,3.4-3.8,3.9C550.5,573.6,548.7,573.5,547.2,572.8z"
				/>
			
				<rect x="464.3" y="549.6" transform="matrix(5.024810e-02 -0.9987 0.9987 5.024810e-02 -102.0536 1019.4321)" class="st0" width="41.4" height="27.6"/>
			<path d="M496.7,584.5c6.7-0.8,12.6-4.7,15.8-10.6c4.1-7.4,2.8-16.7-3.1-22.8c-3.1-3.4-7.3-5.6-11.8-6.3
				c-3.8-0.5-5.6-0.2-13.4,2.5c-7.5,2.5-10.1,3.1-13.9,3.1c-4.4,0-7.4-0.9-15.8-4.6c-7-3.2-9.7-3.9-13.3-3.8c-2.4,0.1-4.8,0.6-7,1.7
				c-5.5,2.4-9.6,7-11.5,12.6c-0.7,2.7-0.9,5.6-0.6,8.3c0.3,2.3,1.1,4.5,2.2,6.5c1.7,2.9,4,5.4,6.7,7.4c3,2.1,6.7,3.3,10.4,3.3
				c3.5,0,4.6-0.2,14-3.3c10.1-3.3,15-3,24.7,1.2s10.2,4.4,13.7,4.7C494.7,584.5,495.7,584.5,496.7,584.5z M491.9,580.2
				c-1.9-0.5-3.2-1-8.1-3.2c-3.3-1.6-6.8-2.9-10.4-3.9c-6.2-1.5-11.4-1-19.4,1.6l-5.3,1.7c-4.5,1.5-6.9,1.8-9.8,1.2
				c-5.9-1-10.7-5.3-12.3-11.1c-2.5-8.5,2.3-17.5,10.9-20c1.4-0.4,2.8-0.6,4.2-0.7c3.1,0,5,0.6,11.8,3.7c3.2,1.5,6.5,2.8,9.9,3.8
				c1.9,0.5,3.8,0.8,5.8,0.7c1.9,0.2,3.9,0.2,5.8-0.1c3.8-0.7,7.5-1.7,11.2-3.1c5.8-2,7.8-2.4,10.1-2.3c10.9,0.6,17.8,11.5,13.9,22
				c-1.5,3.9-4.5,7-8.3,8.7C498.6,580.7,495.2,581,491.9,580.2z"/>
			<path d="M496,574.6c3.6-0.3,7.5-3.6,8.7-7.2c2.1-6.6-4.2-13.9-10.9-12.8c-2,0.3-3.8,1.2-5.2,2.6c-3.5,3.1-4.4,7-2.6,11.1
				C487.6,572.4,491.6,574.8,496,574.6z M492,570c-3.1-1.9-4-5.9-2.1-8.9c0.2-0.3,0.4-0.6,0.6-0.9c0.5-0.5,1.1-0.9,1.8-1.3
				c0.9-0.4,1.2-0.4,3-0.3s2.1,0.2,2.9,0.7c2.5,1.5,3.6,4.6,2.6,7.3c-0.5,1.9-2,3.4-3.8,3.9C495.3,570.8,493.6,570.7,492,570
				L492,570z"/>
			
				<rect x="409.2" y="546.7" transform="matrix(5.024810e-02 -0.9987 0.9987 5.024810e-02 -151.4951 961.6058)" class="st0" width="41.4" height="27.6"/>
			<path d="M441.6,581.7c6.7-0.8,12.6-4.7,15.8-10.6c4.1-7.4,2.8-16.7-3.1-22.8c-3.1-3.4-7.3-5.6-11.8-6.3
				c-3.8-0.5-5.6-0.2-13.4,2.4c-7.5,2.5-10.1,3.1-13.9,3.1c-4.4,0-7.4-0.8-15.8-4.6c-7-3.2-9.7-3.9-13.3-3.8c-2.4,0.1-4.8,0.6-7,1.7
				c-5.5,2.4-9.6,7-11.4,12.6c-0.7,2.7-1,5.5-0.6,8.3c0.4,2.3,1.1,4.5,2.2,6.5c1.7,2.9,4,5.4,6.7,7.4c3,2.1,6.7,3.3,10.4,3.3
				c3.5,0,4.7-0.2,14-3.3c10-3.3,15-3,24.7,1.2s10.2,4.4,13.7,4.7C439.6,581.7,440.6,581.7,441.6,581.7z M436.8,577.4
				c-1.8-0.5-3.2-1-8.1-3.2c-3.3-1.6-6.8-2.9-10.4-3.9c-6.2-1.5-11.4-1-19.4,1.6c-1.6,0.5-4,1.3-5.3,1.7c-4.4,1.5-6.9,1.8-9.8,1.2
				c-5.9-1-10.7-5.3-12.3-11.1c-0.6-2.1-0.8-4.2-0.6-6.4c0.7-8.1,7.5-14.3,15.6-14.2c3.1,0,5,0.6,11.8,3.7c3.2,1.5,6.5,2.8,9.9,3.8
				c1.9,0.5,3.8,0.7,5.8,0.7c1.9,0.2,3.9,0.2,5.8-0.1c3.8-0.7,7.6-1.7,11.2-3.1c5.8-2,7.8-2.4,10.1-2.3c10.9,0.6,17.8,11.5,13.9,22
				c-1.5,3.9-4.5,7-8.3,8.7C443.4,577.9,440,578.2,436.8,577.4L436.8,577.4z"/>
			<path d="M440.8,571.8c3.6-0.3,7.5-3.6,8.7-7.2c2.1-6.6-4.2-13.9-11-12.8c-2,0.3-3.8,1.2-5.2,2.6c-3.5,3.1-4.4,7-2.6,11.1
				C432.4,569.6,436.4,572.1,440.8,571.8z M436.8,567.3c-3.1-1.9-4-5.9-2.1-8.9c0.2-0.3,0.4-0.6,0.6-0.9c0.5-0.5,1.1-0.9,1.8-1.3
				c0.9-0.4,1.2-0.4,3-0.3s2.1,0.1,2.9,0.6c2.5,1.5,3.6,4.6,2.6,7.3c-0.5,1.9-2,3.4-3.8,3.9C440.2,568,438.4,567.9,436.8,567.3z"/>
			
				<rect x="353.9" y="543.9" transform="matrix(5.024810e-02 -0.9987 0.9987 5.024810e-02 -201.2305 903.8484)" class="st0" width="41.4" height="27.6"/>
			<path d="M388.2,579.7c6.7-0.8,12.6-4.7,15.8-10.6c4.1-7.4,2.8-16.7-3.1-22.8c-3.1-3.4-7.3-5.6-11.8-6.3
				c-3.8-0.5-5.6-0.2-13.4,2.5c-7.5,2.5-10.1,3.1-13.9,3.1c-4.4,0-7.4-0.9-15.8-4.6c-7-3.2-9.7-3.9-13.3-3.8c-2.4,0.1-4.8,0.6-7,1.7
				c-5.5,2.4-9.6,7-11.4,12.6c-0.7,2.7-1,5.6-0.6,8.3c0.4,2.3,1.1,4.5,2.2,6.5c1.7,2.9,4,5.4,6.7,7.4c3,2.1,6.7,3.3,10.4,3.3
				c3.5,0,4.6-0.2,14-3.3c10.1-3.3,15-3,24.7,1.2s10.2,4.4,13.7,4.7C386.2,579.7,387.2,579.7,388.2,579.7z M383.4,575.4
				c-1.8-0.5-3.2-1-8.1-3.2c-3.3-1.6-6.8-2.9-10.4-3.9c-6.2-1.5-11.4-1-19.4,1.6c-1.6,0.5-4,1.3-5.3,1.7c-4.5,1.5-6.9,1.8-9.8,1.2
				c-5.9-1-10.7-5.3-12.3-11.1c-0.6-2.1-0.8-4.2-0.6-6.4c0.7-8.1,7.5-14.3,15.6-14.2c3.1,0,5,0.6,11.8,3.7c3.2,1.5,6.5,2.8,9.9,3.8
				c1.9,0.5,3.8,0.8,5.8,0.7c1.9,0.2,3.9,0.2,5.8-0.1c3.8-0.7,7.5-1.7,11.2-3.1c5.8-2,7.8-2.4,10.1-2.3c10.9,0.6,17.8,11.5,13.9,22
				c-1.5,3.9-4.5,7-8.3,8.7C390,575.9,386.6,576.2,383.4,575.4z"/>
			<path d="M387.4,569.8c3.6-0.3,7.5-3.6,8.7-7.2c2.1-6.6-4.2-13.9-11-12.8c-2,0.3-3.8,1.2-5.2,2.6c-3.5,3.1-4.4,7-2.6,11.1
				C379,567.6,383.1,570.1,387.4,569.8z M383.4,565.3c-3.1-1.9-4-5.9-2.1-8.9c0.2-0.3,0.4-0.6,0.6-0.9c0.5-0.5,1.1-0.9,1.8-1.3
				c0.9-0.4,1.2-0.4,3-0.3s2.1,0.2,2.9,0.7c2.5,1.5,3.6,4.6,2.6,7.3c-0.5,1.9-2,3.4-3.8,3.9C386.7,566.1,385,565.9,383.4,565.3z"/>
			
				<rect x="300.6" y="542" transform="matrix(5.024810e-02 -0.9987 0.9987 5.024810e-02 -249.8791 848.741)" class="st0" width="41.4" height="27.6"/>
			<path d="M334.8,577.7c6.7-0.8,12.6-4.8,15.8-10.7c4.1-7.4,2.8-16.7-3.1-22.8c-3.1-3.4-7.2-5.6-11.8-6.3
				c-3.8-0.5-5.6-0.2-13.4,2.4c-7.5,2.5-10.1,3.1-13.9,3.1c-4.4,0-7.4-0.8-15.8-4.6c-7-3.2-9.7-3.9-13.3-3.8c-2.4,0.1-4.8,0.6-7,1.7
				c-5.5,2.3-9.7,7-11.5,12.6c-0.7,2.7-0.9,5.6-0.6,8.3c0.4,2.3,1.1,4.5,2.2,6.5c1.7,2.9,4,5.4,6.7,7.4c3,2.1,6.7,3.3,10.4,3.3
				c3.5,0,4.6-0.2,14-3.3c10.1-3.3,15-3,24.7,1.2s10.2,4.4,13.7,4.7C332.8,577.7,333.8,577.7,334.8,577.7z M330,573.4
				c-1.9-0.5-3.2-1-8.1-3.2c-3.3-1.6-6.8-2.9-10.4-3.9c-6.2-1.5-11.4-1-19.4,1.6l-5.3,1.7c-4.5,1.5-6.9,1.8-9.8,1.2
				c-5.9-1-10.7-5.3-12.3-11.1c-2.5-8.5,2.4-17.5,10.9-20c1.3-0.4,2.7-0.6,4.1-0.6c3.1,0,5,0.6,11.8,3.7c3.2,1.5,6.5,2.8,9.9,3.8
				c1.9,0.5,3.8,0.8,5.8,0.7c1.9,0.2,3.9,0.2,5.8-0.1c3.8-0.7,7.5-1.7,11.1-3.1c5.8-2,7.8-2.4,10.1-2.3c10.9,0.6,17.8,11.5,13.9,22
				c-1.5,3.9-4.5,7-8.3,8.7C336.6,573.9,333.2,574.2,330,573.4L330,573.4z"/>
			<path d="M334,567.8c3.6-0.3,7.5-3.6,8.7-7.2c2.1-6.6-4.2-13.9-10.9-12.7c-2,0.3-3.8,1.2-5.2,2.6c-3.5,3.1-4.4,7-2.6,11.1
				C325.6,565.6,329.7,568.1,334,567.8z M330.1,563.3c-3.1-1.9-4-5.9-2.1-8.9c0.2-0.3,0.4-0.6,0.7-0.9c0.5-0.5,1.1-0.9,1.8-1.3
				c0.9-0.4,1.2-0.4,3-0.3s2.1,0.2,2.9,0.7c2.5,1.5,3.6,4.6,2.6,7.3c-0.5,1.9-2,3.4-3.8,3.9C333.4,564.1,331.6,563.9,330.1,563.3z"
				/>
			
				<rect x="247.2" y="540" transform="matrix(5.024810e-02 -0.9987 0.9987 5.024810e-02 -298.615 793.4919)" class="st0" width="41.4" height="27.6"/>
			<path d="M282.7,575.7c6.7-0.8,12.6-4.7,15.8-10.6c4.1-7.4,2.8-16.7-3.1-22.8c-3.1-3.4-7.3-5.6-11.8-6.3
				c-3.8-0.5-5.6-0.2-13.4,2.5c-7.5,2.5-10.1,3.1-13.9,3.1c-4.4,0-7.4-0.9-15.8-4.6c-7-3.2-9.7-3.9-13.3-3.8c-2.4,0.1-4.8,0.6-7,1.7
				c-5.5,2.4-9.6,7-11.5,12.6c-0.7,2.7-0.9,5.5-0.6,8.3c0.4,2.3,1.1,4.5,2.2,6.5c1.7,2.9,4,5.4,6.7,7.4c3,2.1,6.7,3.3,10.4,3.3
				c3.5,0,4.6-0.2,14-3.3c10.1-3.3,15-3,24.7,1.2s10.2,4.4,13.7,4.7C280.7,575.7,281.7,575.7,282.7,575.7z M277.9,571.4
				c-1.9-0.5-3.2-1-8.1-3.2c-3.3-1.6-6.8-2.9-10.4-3.9c-6.2-1.5-11.4-1-19.4,1.6l-5.3,1.7c-4.5,1.5-6.9,1.8-9.8,1.2
				c-5.9-1-10.7-5.3-12.3-11.1c-2.5-8.5,2.4-17.5,10.9-20c1.3-0.4,2.7-0.6,4.1-0.6c3.1,0,5,0.6,11.8,3.7c3.2,1.5,6.5,2.8,9.9,3.8
				c1.9,0.5,3.8,0.8,5.8,0.7c1.9,0.2,3.9,0.2,5.8-0.1c3.8-0.7,7.5-1.7,11.1-3.1c5.8-2,7.8-2.4,10.1-2.3c10.9,0.6,17.8,11.5,13.9,22
				c-1.5,3.9-4.5,7-8.3,8.7C284.5,571.9,281.1,572.2,277.9,571.4z"/>
			<path d="M281.9,565.8c3.6-0.3,7.5-3.6,8.7-7.2c2.1-6.6-4.2-13.9-10.9-12.8c-2,0.3-3.8,1.2-5.2,2.6c-3.5,3.1-4.4,7-2.6,11.1
				C273.5,563.6,277.6,566.1,281.9,565.8z M278,561.3c-3.1-1.9-4-5.9-2.1-8.9c0.2-0.3,0.4-0.6,0.6-0.9c0.5-0.5,1.1-0.9,1.8-1.3
				c0.9-0.4,1.2-0.4,3-0.3s2.1,0.1,2.9,0.6c2.5,1.5,3.6,4.6,2.6,7.3c-0.5,1.9-2,3.4-3.8,3.9C281.3,562.1,279.5,561.9,278,561.3z"/>
			
				<rect x="195.1" y="538" transform="matrix(5.024810e-02 -0.9987 0.9987 5.024810e-02 -346.1112 739.5896)" class="st0" width="41.4" height="27.6"/>
			<path d="M218.8,570.2c5.7,3,13.6,3.2,20.5,0.6c8.9-3.4,14.7-10.7,14.8-18.6c0.1-4.2-1.5-8.2-4.6-11c-2.6-2.4-4.3-3.1-12.5-5.4
				c-7.9-2.2-10.4-3.1-13.4-5.2c-3.5-2.4-5.2-4.6-9-11.9c-3.1-6.1-4.7-8.1-7.7-10c-2.1-1.3-4.4-2.1-6.8-2.5c-6.4-1.1-13,0-18.6,3.3
				c-2.6,1.6-4.9,3.6-6.8,5.9c-1.4,1.8-2.5,3.8-3.2,6c-0.8,2.9-0.9,6.1-0.3,9.1c0.8,3.3,2.9,6.1,5.7,8c2.7,1.9,3.9,2.3,13.6,5.1
				c10.4,3,14.2,5.8,18.6,14.2s4.7,8.7,7.3,10.8C217.3,569.1,218,569.7,218.8,570.2z M218.3,564.5c-1.1-1.4-1.8-2.5-4-6.8
				c-1.4-3-3.2-5.9-5.3-8.5c-3.8-4.4-8.3-6.9-16.5-9.2c-1.6-0.5-4.2-1.2-5.5-1.6c-4.6-1.3-6.8-2.4-8.7-4.3
				c-3.9-4.2-4.5-9.7-1.4-14.9c1.1-1.9,2.6-3.7,4.4-5.1c7-5.7,16.6-6.7,23.2-2.3c2.5,1.7,3.5,3.1,6.5,9.1c1.4,2.9,3.1,5.6,5,8.1
				c1.1,1.4,2.5,2.6,4,3.6c1.4,1.2,3,2.2,4.7,3c3.6,1.5,7.4,2.8,11.2,3.7c6.1,1.6,8,2.4,9.7,3.7c8.2,6.3,5.4,18.1-5.6,23.8
				c-4,2.1-8.7,2.8-13.1,2C223.4,568.5,220.5,566.9,218.3,564.5L218.3,564.5z"/>
			<path d="M225.7,562.5c3.1,1.7,8.7,1.4,12.3-0.7c6.7-3.8,7.2-12.6,1-15.4c-1.9-0.9-4-1.2-6.1-0.9c-5.1,0.5-8.8,2.9-10.5,6.9
				C220.7,556.1,222.1,560.5,225.7,562.5z M226,556.9c-0.9-1.9-0.2-4,1.8-5.9c1.2-1.2,2.7-2,4.4-2.2c0.8-0.1,1.6-0.1,2.3,0
				c1,0.2,1.3,0.3,2.6,1.3s1.6,1.3,1.8,2.1c0.8,2.4-0.5,5.1-3.5,6.8c-1.8,1.1-4,1.4-6,0.8C228.1,559.4,226.8,558.3,226,556.9
				L226,556.9z"/>
			<polygon class="st0" points="190.2,493.7 211,509.5 178,539.2 157.2,523.4 			"/>
			<path d="M174.6,535.9c4.1,5.7,11.7,9.5,19.8,10c10.4,0.6,19.8-4.2,23.8-12.3c2.2-4.1,2.6-9,1.1-13.4c-1.3-3.6-2.6-5.2-9.5-11.2
				c-6.6-5.8-8.6-8-10.5-11.4c-2.3-4-2.8-7.1-2.8-16.3c0-7.7-0.5-10.5-2.5-13.7c-1.4-2.2-3.2-4.2-5.4-5.7c-5.8-4.1-12.8-6-19.9-5.2
				c-3.3,0.4-6.6,1.4-9.6,2.9c-2.3,1.2-4.4,2.8-6.2,4.7c-2.3,2.6-4,5.8-4.9,9.1c-0.9,3.7-0.3,7.5,1.5,10.8
				c1.7,3.2,2.6,4.1,10.7,11.4c8.7,7.8,10.9,12.4,11,23c0.1,10.6,0.2,11.1,1.7,14.4C173.5,534,174,535,174.6,535.9z M176.9,529.7
				c-0.4-1.9-0.5-3.3-0.5-8.8s-0.2-8.3-0.9-11.1c-1.5-6.2-4.6-10.8-11.5-17c-1.4-1.2-3.5-3.1-4.6-4.1c-3.9-3.4-5.5-5.6-6.3-8.4
				c-1.7-6.1,0.6-12,6.1-15.8c2.1-1.5,4.4-2.5,6.9-3.2c9.8-2.7,19.6,0.8,23.8,8.3c1.6,2.8,1.9,4.8,1.8,12.3
				c-0.1,3.5,0.1,7.1,0.8,10.6c0.3,1.8,0.6,2.5,2.1,5.5c0.8,1.9,1.8,3.6,3.1,5.2c2.1,2.5,4.2,4.6,9.1,8.9c5.1,4.5,6.6,6.1,7.6,8.2
				c4.9,10.2-3.9,21-17.5,21.8c-4.9,0.3-9.8-1.1-13.9-3.9C179.9,536.1,177.8,533.1,176.9,529.7z"/>
			<path d="M185.2,531c2.2,3.2,7.8,5.4,12.4,4.9c8.5-0.9,13.4-9.6,8.7-15.3c-1.4-1.8-3.4-3-5.5-3.7c-5.2-1.8-10-1.1-13.8,2.2
				C183.5,522.4,182.7,527.4,185.2,531z M188.3,525.6c0.1-2.3,1.9-4.2,4.8-5.2c1.7-0.7,3.7-0.8,5.5-0.3c0.8,0.3,1.6,0.6,2.3,1.1
				c0.9,0.6,1.1,0.9,1.9,2.6c0.8,1.7,0.9,2,0.8,2.9c-0.4,2.8-3.1,5-6.8,5.4c-2.3,0.3-4.6-0.4-6.3-1.9
				C189.1,529,188.4,527.3,188.3,525.6L188.3,525.6z"/>
			<polygon class="st0" points="185.2,444.5 197.5,470.2 150.3,485.5 138,459.8 			"/>
			<path d="M149.2,477.8c0.1,6.6,4.4,13,11.1,16.7c8.9,4.7,19.6,4.3,28.1-1c4.7-3,7.7-6.8,9-11.2c1-3.7,0.9-5.5-1.4-13.6
				c-2.2-7.7-2.6-10.4-2.2-14.1c0.5-4.4,1.9-7.3,7.4-15.3c4.7-6.7,5.9-9.3,6.1-13c0.2-2.4-0.3-4.8-1.2-7
				c-2.3-5.7-7.3-10.2-14.1-12.5c-3.3-1-6.7-1.5-10.1-1.4c-2.8,0.1-5.5,0.7-8.2,1.6c-3.6,1.4-6.9,3.4-9.7,6s-4.7,6.2-5.2,10
				c-0.5,3.5-0.3,4.7,2.4,14.3c2.8,10.3,2,15.2-4.3,24.5s-6.5,9.7-7.3,13.2C149.5,475.8,149.3,476.8,149.2,477.8z M155,473.4
				c0.8-1.8,1.6-3.1,4.9-7.8s4.8-7.3,5.9-10c2.5-6,2.6-11.3,0.3-19.5c-0.4-1.6-1.1-4.1-1.5-5.5c-1.3-4.6-1.4-7-0.4-9.8
				c2.2-6,7.7-10.2,14.9-11.3c2.6-0.4,5.3-0.4,7.9,0c10.1,1.6,16.5,8.6,15.6,16.9c-0.4,3.1-1.3,4.9-5.9,11.4c-2.2,3-4.1,6.2-5.8,9.5
				c-1.4,3.7-2.1,7.5-2.1,11.5c0.3,3,0.9,5.7,2.5,11.4c1.7,5.9,2.1,8,1.7,10.3c-1.9,10.8-16.1,16.7-28.4,11.8
				c-4.3-1.6-7.8-4.8-9.6-9C153.7,480.1,153.7,476.5,155,473.4L155,473.4z"/>
			<path d="M161.4,477.9c0,3.6,3.5,7.8,7.8,9.3c7.8,2.7,17.4-2.9,16.8-9.8c-0.2-2.1-1.1-4-2.6-5.5c-3.4-3.7-8-5-13.3-3.6
				C165.1,469.7,161.4,473.8,161.4,477.9z M167.4,474.4c1.5-2,4.2-2.9,7.3-2.6c1.8,0.1,3.6,0.8,4.9,2c0.5,0.5,1,1.2,1.3,1.9
				c0.4,0.9,0.4,1.2,0.1,3s-0.4,2.1-1.1,2.9c-2,2.3-5.7,3.1-9.2,1.9c-2.1-0.5-3.7-2.1-4.3-4.2C166.1,477.6,166.5,475.9,167.4,474.4z
				"/>
			<polygon class="st0" points="213.7,402.5 208.9,429.9 158.7,424.1 163.6,396.7 			"/>
			<path d="M161.6,412.8c-4.2,5.5-4.8,12.9-1.5,19c4.2,7.8,13.7,12.3,24.4,11.4c5.4-0.3,10.6-2.2,14.9-5.6c3.3-2.7,4.3-4.3,7.7-12.2
				c3.2-7.5,4.6-10,7.4-12.9c3.3-3.5,6.4-5.4,16.3-9.7c8.3-3.6,11.1-5.3,13.6-8.3c1.7-1.9,2.9-4.1,3.6-6.6
				c1.8-5.9,0.4-12.2-3.7-16.8c-2.2-2.3-4.8-4.2-7.6-5.6c-2.5-1.1-5.2-1.9-7.9-2.2c-4.1-0.4-8.2-0.1-12.1,0.8c-4.2,1-8,3.2-11,6.2
				c-2.6,2.8-3.2,3.9-7.2,13.2c-4.4,10-8.3,13.8-19.7,18.9s-11.9,5.4-14.8,8.1C163.1,411.1,162.3,411.9,161.6,412.8z M169.3,411.5
				c1.9-1.2,3.4-1.9,9.2-4.5c4-1.6,7.9-3.6,11.5-5.9c6-4,9.5-8.4,13-16.4c0.7-1.6,1.7-4,2.3-5.3c1.9-4.4,3.5-6.6,6.1-8.5
				c5.8-4.1,13.2-5.3,19.9-3.1c2.4,0.7,4.6,1.9,6.6,3.4c7.4,5.8,8.3,14.5,2.1,21.1c-2.3,2.5-4.3,3.6-12.4,7.1
				c-3.8,1.6-7.5,3.4-11.1,5.6c-1.8,1.2-3.5,2.5-5,4.1c-1.6,1.4-3,2.9-4.2,4.7c-1.8,2.7-3,5.2-5.3,10.8c-2.4,5.8-3.5,7.7-5.3,9.4
				c-8.7,8.3-24.5,7.2-31.7-2.4c-2.6-3.4-3.5-7.8-2.2-11.9C164.1,416.4,166.3,413.5,169.3,411.5z"/>
			<path d="M171.7,418.2c-2.4,3.5-2.2,8,0.5,11.3c4.9,5.7,16.6,5.1,20.5-0.9c1.2-1.7,1.7-3.7,1.4-5.8c-0.4-4.7-3.5-7.8-8.8-8.9
				C180.3,412.8,174.5,414.6,171.7,418.2z M179.1,417.8c2.6-1,5.5-0.6,7.8,1c1.8,1.2,2.6,2.3,2.8,3.8c0.1,0.7,0.1,1.5-0.1,2.2
				c-0.3,0.9-0.4,1.2-1.9,2.6s-1.7,1.6-2.8,1.9c-3.2,1.1-6.7,0.1-9-2.4c-1.4-1.4-1.8-3.6-0.9-5.4
				C175.9,419.9,177.4,418.6,179.1,417.8L179.1,417.8z"/>
			<path d="M1214.6,295.1c-6.1-2.7-13.2-2.3-19,1.1c-7.3,4.3-11,12.9-9,21.1c0.9,4.5,3.4,8.5,6.9,11.4c3,2.3,4.7,3,12.8,4.8
				c7.8,1.7,10.3,2.5,13.5,4.5c3.8,2.3,5.9,4.5,11.2,12c4.4,6.3,6.3,8.3,9.5,10.1c2.1,1.2,4.4,1.9,6.8,2.2c5.9,0.8,11.9-1,16.3-5
				c2-2,3.7-4.3,4.8-6.8c0.9-2.1,1.4-4.4,1.5-6.7c0-3.3-0.7-6.7-2-9.7c-1.5-3.4-4-6.2-7.2-8.1c-2.9-1.8-4.1-2.2-13.7-4.3
				c-10.3-2.3-14.4-5.1-20.6-13.7s-6.5-9-9.4-11C1216.3,296.1,1215.4,295.6,1214.6,295.1z M1216.5,301.2c1.3,1.4,2.2,2.5,5.3,7
				c2,3.1,4.4,6,7,8.7c4.6,4.4,9.3,6.7,17.5,8.6c1.6,0.4,4.1,0.9,5.5,1.2c4.6,1,6.8,2,9,4c4.5,3.9,6.5,10,4.9,15.8
				c-0.5,2.1-1.5,4.1-2.8,5.8c-4.7,6.6-13.8,8.5-20.7,4.3c-2.7-1.6-4-3-8.2-9.2c-1.9-3-4.1-5.7-6.6-8.3c-1.4-1.4-2.9-2.6-4.6-3.6
				c-1.5-1.2-3.2-2.1-5-2.8c-3.6-1.3-7.4-2.3-11.2-3c-6-1.3-7.9-1.9-9.8-3.2c-9.1-6.1-9.4-19-0.7-26
				C1202.3,295.6,1210.9,296,1216.5,301.2L1216.5,301.2z"/>
			<path d="M1210.2,304c-3.8-1.5-8-0.8-11.1,1.8c-5.2,4.6-3.5,14.1,2.9,16.5c1.8,0.8,3.9,0.9,5.8,0.5c4.6-0.9,7.3-3.8,8-8.2
				C1216.3,310.2,1214.1,306,1210.2,304z M1211.2,309.9c1.7,3.2,0.4,7.1-2.8,8.8c-0.3,0.2-0.7,0.3-1,0.4c-0.7,0.2-1.4,0.2-2.2,0.2
				c-1-0.1-1.2-0.2-2.7-1.2s-1.8-1.2-2.2-2c-1.4-2.6-0.7-5.7,1.5-7.6c1.4-1.4,3.4-1.9,5.3-1.4
				C1208.8,307.5,1210.2,308.6,1211.2,309.9L1211.2,309.9z"/>
			
				<rect x="1239" y="336.1" transform="matrix(0.5544 -0.8322 0.8322 0.5544 270.0547 1204.2885)" class="st0" width="41.4" height="27.6"/>
			<path d="M1265.3,329.2c-4.7-4.8-11.4-7.1-18.1-6c-8.4,1.3-14.9,8-16.1,16.4c-0.8,4.5,0,9.2,2.3,13.2c1.9,3.3,3.3,4.5,10.2,9.1
				c6.6,4.4,8.7,6.1,11,9.1c2.7,3.5,3.8,6.4,6,15.3c1.8,7.5,2.8,10.1,5.2,12.8c1.5,1.9,3.4,3.4,5.6,4.5c5.2,2.9,11.4,3.4,17,1.3
				c2.6-1.1,5-2.6,7-4.6c1.6-1.7,2.9-3.6,3.8-5.7c1.2-3.1,1.8-6.4,1.8-9.8c-0.2-3.7-1.5-7.3-3.8-10.2c-2.1-2.8-3-3.5-11.2-9.1
				c-8.7-6-11.6-10-14.1-20.3s-2.7-10.7-4.7-13.7C1266.6,330.8,1266,330,1265.3,329.2z M1264.9,335.6c0.8,1.8,1.2,3.1,2.4,8.4
				c0.7,3.6,1.9,7.2,3.3,10.6c2.6,5.8,6.2,9.6,13.1,14.4c1.4,1,3.5,2.4,4.7,3.2c3.9,2.6,5.6,4.4,7,7c2.8,5.3,2.3,11.7-1.2,16.5
				c-1.3,1.8-2.9,3.2-4.7,4.4c-6.8,4.5-15.9,2.9-20.9-3.6c-1.9-2.5-2.6-4.3-4.3-11.6c-0.7-3.5-1.7-6.8-3.1-10.1
				c-0.8-1.8-1.7-3.5-2.9-5c-1-1.6-2.2-3.2-3.6-4.5c-2.9-2.6-6-4.9-9.3-6.9c-5.1-3.4-6.7-4.7-8-6.5c-6.2-9-1.8-21.1,8.9-24.4
				c4-1.2,8.3-0.8,12,1.2C1261.2,330.1,1263.5,332.6,1264.9,335.6L1264.9,335.6z"/>
			<path d="M1258,335.9c-2.5-2.7-7.4-3.8-11-2.5c-6.5,2.4-8.4,11.8-3.4,16.5c1.4,1.4,3.3,2.3,5.3,2.5c4.6,0.8,8.2-0.8,10.4-4.7
				C1261.4,343.9,1260.9,339.2,1258,335.9z M1256.8,341.8c0.4,3.6-2.2,6.8-5.8,7.2c-0.4,0-0.7,0-1.1,0c-0.7-0.1-1.4-0.3-2.1-0.6
				c-0.9-0.4-1-0.6-2.1-2.2s-1.2-1.8-1.3-2.7c-0.3-2.9,1.4-5.6,4.2-6.5c1.8-0.7,3.9-0.5,5.4,0.7
				C1255.4,338.7,1256.4,340.2,1256.8,341.8z"/>
			
				<rect x="1266.7" y="382.9" transform="matrix(0.8206 -0.5716 0.5716 0.8206 4.2741 807.0172)" class="st0" width="41.4" height="27.6"/>
			<path d="M1299.6,378.8c-2.8-6.1-8.5-10.4-15.1-11.7c-8.3-1.6-16.7,2.5-20.6,10.1c-2.3,4-3,8.6-2.2,13.2c0.7,3.7,1.6,5.3,6.5,12
				c4.8,6.3,6.1,8.7,7.3,12.2c1.4,4.2,1.5,7.3,0.6,16.4c-0.8,7.6-0.7,10.4,0.6,13.8c0.8,2.3,2.1,4.3,3.8,6.1c3.9,4.5,9.6,7,15.6,6.9
				c2.8-0.1,5.6-0.8,8.1-2c2-1,3.9-2.4,5.5-4.1c2.2-2.5,3.9-5.4,4.9-8.6c1.1-3.6,1-7.4-0.1-10.9c-1-3.3-1.7-4.3-7.5-12.3
				c-6.3-8.5-7.6-13.3-6.6-23.8s1-11,0.1-14.5C1300.2,380.7,1299.9,379.8,1299.6,378.8z M1297,384.7c0.1,1.9,0,3.3-0.5,8.7
				c-0.5,3.7-0.6,7.4-0.4,11.1c0.6,6.3,2.6,11.1,7.6,17.9c1,1.3,2.5,3.4,3.3,4.5c2.8,3.8,3.9,6,4.2,8.9c0.9,5.9-1.7,11.8-6.6,15.2
				c-1.8,1.2-3.8,2.1-5.9,2.5c-7.9,1.9-16-2.6-18.5-10.4c-1-3-1-4.9-0.2-12.4c0.5-3.5,0.6-7,0.5-10.6c-0.1-1.9-0.5-3.9-1.1-5.7
				c-0.4-1.9-1.1-3.7-1.9-5.5c-1.9-3.4-4-6.6-6.4-9.6c-3.7-4.9-4.8-6.6-5.4-8.8c-2.9-10.5,5.3-20.5,16.5-20.1
				c4.2,0.2,8.1,2,10.8,5.1C1295.3,378.3,1296.7,381.4,1297,384.7L1297,384.7z"/>
			<path d="M1290.4,382.6c-1.4-3.3-5.8-6-9.6-6c-7,0.1-11.9,8.3-8.7,14.4c0.9,1.8,2.3,3.2,4.1,4.2c4.1,2.3,8,2,11.4-1
				C1290.9,391.3,1292,386.7,1290.4,382.6z M1287.3,387.8c-0.8,3.5-4.3,5.7-7.8,4.8c-0.4-0.1-0.7-0.2-1-0.3
				c-0.6-0.3-1.2-0.8-1.7-1.3c-0.7-0.7-0.8-1-1.3-2.7s-0.5-2-0.3-3c0.7-2.8,3.2-4.8,6.1-4.7c1.9-0.1,3.8,0.8,4.9,2.4
				C1287,384.4,1287.4,386.1,1287.3,387.8L1287.3,387.8z"/>
			
				<rect x="1277.1" y="436" transform="matrix(0.9641 -0.2657 0.2657 0.9641 -72.8767 360.967)" class="st0" width="41.4" height="27.6"/>
			<path d="M1315.4,436.1c-1.2-6.6-5.6-12.2-11.7-15c-7.7-3.6-16.8-1.7-22.5,4.6c-3.2,3.3-5.1,7.6-5.5,12.2
				c-0.3,3.8,0.2,5.6,3.3,13.2c3,7.3,3.8,9.9,4,13.7c0.3,4.4-0.4,7.4-3.6,16c-2.7,7.2-3.3,9.9-2.9,13.6c0.2,2.4,1,4.7,2.1,6.9
				c2.7,5.3,7.6,9.2,13.4,10.6c2.8,0.6,5.6,0.6,8.4,0.1c2.2-0.5,4.4-1.4,6.3-2.6c2.8-1.9,5.1-4.3,6.9-7.1c1.9-3.2,2.8-6.9,2.6-10.6
				c-0.2-3.5-0.5-4.6-4.2-13.8c-3.9-9.8-4-14.7-0.4-24.7s3.7-10.4,3.7-14C1315.5,438.1,1315.5,437.1,1315.4,436.1z M1311.4,441.2
				c-0.4,1.9-0.8,3.2-2.7,8.3c-1.4,3.4-2.5,7-3.2,10.7c-1,6.2-0.3,11.4,2.9,19.2c0.6,1.6,1.6,3.9,2.1,5.2c1.8,4.3,2.2,6.8,1.9,9.7
				c-0.6,5.9-4.6,11-10.2,13c-2,0.8-4.2,1.1-6.3,1c-8.1-0.1-14.8-6.5-15.3-14.6c-0.2-3.1,0.2-5,2.9-12c1.3-3.3,2.4-6.7,3.1-10.1
				c0.4-1.9,0.5-3.9,0.3-5.8c0.1-1.9-0.1-3.9-0.5-5.8c-1-3.7-2.3-7.4-3.8-10.9c-2.3-5.6-3-7.6-3-9.9c-0.2-10.9,10.3-18.5,21-15.3
				c4,1.2,7.3,4,9.2,7.7C1311.4,434.5,1312,437.9,1311.4,441.2L1311.4,441.2z"/>
			<path d="M1305.6,437.5c-0.6-3.6-4.1-7.3-7.8-8.2c-6.8-1.6-13.6,5.1-12,11.8c0.4,2,1.5,3.7,2.9,5.1c3.4,3.2,7.3,3.9,11.3,1.9
				C1304,446,1306.2,441.8,1305.6,437.5z M1301.3,441.7c-0.9,2.2-3.1,3.5-5.4,3.5c-1.5,0.1-3.1-0.3-4.3-1.3c-0.5-0.5-1-1.1-1.4-1.7
				c-0.5-0.8-0.5-1.1-0.6-3s0-2.1,0.4-3c1.3-2.6,4.3-3.9,7.1-3.1c1.9,0.4,3.5,1.7,4.2,3.6C1301.9,438.4,1301.9,440.1,1301.3,441.7
				L1301.3,441.7z"/>
			
				<rect x="1275.3" y="490.6" transform="matrix(0.9999 -1.657857e-02 1.657857e-02 0.9999 -8.1844 21.556)" class="st0" width="41.4" height="27.6"/>
			<path d="M1316.4,495.1c1-6.7-1.3-13.4-6.2-18c-6.1-5.9-15.4-7-22.8-2.9c-4.1,2.1-7.3,5.6-9.1,9.8c-1.4,3.5-1.6,5.3-1.1,13.6
				c0.5,7.9,0.4,10.6-0.6,14.2c-1.1,4.3-2.7,6.9-8.5,14.1c-4.9,5.9-6.3,8.4-7.1,11.9c-0.5,2.4-0.6,4.8-0.2,7.2
				c0.9,5.9,4.2,11.1,9.3,14.3c2.4,1.4,5.1,2.3,7.9,2.8c2.3,0.2,4.6,0.1,6.8-0.4c3.2-0.9,6.2-2.4,8.8-4.5c2.8-2.4,4.9-5.6,5.8-9.2
				c0.9-3.3,1-4.5,0.4-14.4c-0.6-10.6,0.9-15.3,7.6-23.5s6.9-8.7,8-12C1315.8,497.1,1316.1,496.1,1316.4,495.1z M1311,498.7
				c-1,1.7-1.8,2.8-5.2,7c-2.4,2.8-4.6,5.8-6.4,9.1c-3,5.6-3.9,10.7-3.5,19.2c0.1,1.7,0.2,4.2,0.3,5.6c0.3,4.7-0.1,7.1-1.3,9.8
				c-2.5,5.4-7.9,8.9-13.9,9c-2.2,0.1-4.3-0.3-6.3-1.1c-7.7-2.7-11.9-10.9-9.8-18.8c0.8-3,1.8-4.6,6.6-10.4c2.3-2.7,4.4-5.5,6.2-8.6
				c1.7-3.5,2.9-7.2,3.6-11c0.3-3.9,0.3-7.7-0.1-11.6c-0.4-6.1-0.3-8.2,0.4-10.3c3.4-10.4,15.7-14.2,24.8-7.7
				c3.4,2.4,5.6,6.1,6.3,10.2C1313.1,492.3,1312.6,495.7,1311,498.7L1311,498.7z"/>
			<path d="M1306.6,493.3c0.6-3.6-1.5-8.2-4.7-10.2c-5.9-3.7-14.5,0.4-15.1,7.3c-0.2,2,0.2,4,1.2,5.7c2.1,4.2,5.7,6,10.1,5.4
				C1302.3,500.9,1305.7,497.6,1306.6,493.3z M1301.2,496c-2.6,2.5-6.7,2.4-9.2-0.2c-0.3-0.3-0.5-0.6-0.7-0.9
				c-0.4-0.6-0.6-1.3-0.8-2c-0.2-1-0.1-1.2,0.4-3s0.7-2,1.4-2.7c2.1-2,5.3-2.3,7.7-0.6c1.7,1,2.7,2.8,2.8,4.7
				C1302.8,493,1302.2,494.6,1301.2,496z"/>
			
				<rect x="1262.2" y="533" transform="matrix(0.3064 -0.9519 0.9519 0.3064 358.0176 1598.6563)" class="st0" width="27.6" height="41.4"/>
			<path d="M1294.8,555.9c3.7-5.6,4.4-12.7,2-18.9c-3.1-7.9-11-12.9-19.4-12.2c-4.6,0.2-8.9,1.9-12.3,5c-2.8,2.6-3.7,4.2-6.7,11.9
				c-2.9,7.4-4.1,9.8-6.5,12.7c-2.8,3.4-5.4,5.1-13.7,9.2c-6.9,3.3-9.2,4.9-11.4,7.8c-1.5,1.9-2.6,4.1-3.2,6.4
				c-1.7,5.7-0.8,11.9,2.4,16.9c1.6,2.3,3.6,4.3,6,5.8c2,1.2,4.1,2,6.4,2.5c3.3,0.5,6.7,0.4,9.9-0.4c3.6-1,6.8-3,9.2-5.8
				c2.3-2.6,2.8-3.7,6.5-12.8c3.9-9.8,7.3-13.5,16.8-18.1s9.9-5,12.4-7.5C1293.5,557.4,1294.1,556.7,1294.8,555.9z M1288.4,556.9
				c-1.6,1.1-2.8,1.8-7.7,4.2c-3.4,1.5-6.6,3.4-9.7,5.5c-5.1,3.8-8.1,8.1-11.2,15.9c-0.6,1.5-1.6,3.9-2.1,5.2
				c-1.7,4.4-3.1,6.5-5.3,8.3c-6.8,5.6-16.9,4.7-22.5-2.1c-4.9-5.9-4.9-14.4-0.1-20.4c2-2.4,3.6-3.4,10.4-6.7
				c3.2-1.5,6.3-3.2,9.2-5.2c1.6-1.1,3-2.5,4.3-4c1.4-1.3,2.6-2.9,3.6-4.5c1.9-3.4,3.5-6.9,4.8-10.5c2.2-5.7,3.1-7.5,4.7-9.2
				c7.4-8,20.2-6.3,25.7,3.5C1296.3,543.6,1294.6,552.2,1288.4,556.9L1288.4,556.9z"/>
			<path d="M1286.7,550.2c2.1-3,2.1-8.1,0-11.3c-3.8-5.8-13.3-5.7-16.8,0.2c-1,1.7-1.5,3.7-1.4,5.7c0.2,4.7,2.6,7.8,6.9,9.2
				C1279.6,555.2,1284.1,553.7,1286.7,550.2z M1280.7,550.3c-3.4,1.1-7.1-0.7-8.2-4.1c-0.1-0.3-0.2-0.7-0.3-1c0-0.7,0-1.5,0.2-2.2
				c0.2-0.9,0.4-1.2,1.7-2.5s1.5-1.5,2.4-1.8c2.7-0.9,5.8,0.2,7.3,2.7c1.1,1.6,1.3,3.7,0.5,5.5
				C1283.4,548.3,1282.2,549.5,1280.7,550.3L1280.7,550.3z"/>
			
				<rect x="1219.7" y="571.2" transform="matrix(0.6789 -0.7342 0.7342 0.6789 -38.5373 1095.6772)" class="st0" width="27.6" height="41.4"/>
			<path d="M1255.6,596.4c5.2-4.3,7.9-10.9,7.3-17.6c-0.7-8.5-6.8-15.5-15.1-17.3c-4.4-1.1-9.1-0.7-13.3,1.3
				c-3.4,1.7-4.8,2.9-9.9,9.4c-4.9,6.2-6.8,8.2-9.9,10.2c-3.7,2.5-6.7,3.4-15.7,4.8c-7.6,1.2-10.3,2.1-13.2,4.2
				c-2,1.4-3.6,3.2-4.9,5.2c-3.3,5-4.2,11.1-2.6,16.8c0.9,2.7,2.3,5.2,4.1,7.3c1.5,1.7,3.4,3.1,5.4,4.2c3,1.5,6.3,2.3,9.6,2.5
				c3.7,0.1,7.4-0.9,10.5-3c2.9-1.9,3.8-2.7,9.9-10.4c6.6-8.3,10.8-10.8,21.3-12.5s10.9-1.9,14-3.6
				C1253.9,597.5,1254.7,597,1255.6,596.4z M1249.2,595.5c-1.8,0.6-3.2,0.9-8.6,1.8c-3.7,0.5-7.3,1.3-10.8,2.5
				c-5.9,2.2-10.1,5.4-15.3,12c-1,1.3-2.6,3.3-3.5,4.4c-2.9,3.7-4.8,5.3-7.5,6.4c-5.5,2.4-11.8,1.4-16.4-2.5c-1.7-1.4-3-3.1-4-5
				c-3.9-7.1-1.7-16.1,5.2-20.5c2.6-1.7,4.4-2.3,11.9-3.4c3.5-0.5,7-1.2,10.3-2.3c1.8-0.6,3.6-1.5,5.2-2.5c1.7-0.9,3.3-2,4.8-3.3
				c2.8-2.7,5.3-5.6,7.6-8.7c3.8-4.8,5.2-6.3,7.2-7.5c9.4-5.5,21.2-0.2,23.7,10.7c0.9,4.1,0.1,8.3-2.1,11.8
				C1255,592.2,1252.3,594.3,1249.2,595.5z"/>
			<path d="M1249.5,588.6c2.8-2.3,4.3-7.1,3.3-10.8c-1.9-6.7-11.1-9.3-16.2-4.6c-1.5,1.3-2.5,3.1-3,5c-1.2,4.5,0.2,8.3,3.9,10.8
				C1241.2,591.3,1246,591.2,1249.5,588.6z M1243.7,587c-3.6,0.1-6.6-2.7-6.7-6.3c0-0.4,0-0.7,0.1-1.1c0.2-0.7,0.4-1.4,0.8-2
				c0.5-0.8,0.7-1,2.3-1.9s1.8-1,2.8-1.1c2.9-0.1,5.5,1.9,6.2,4.7c0.6,1.9,0.2,3.9-1.1,5.4C1246.9,585.8,1245.3,586.6,1243.7,587z"
				/>
			
				<rect x="1172.7" y="592.4" transform="matrix(0.8618 -0.5072 0.5072 0.8618 -147.0134 686.5109)" class="st0" width="27.6" height="41.4"/>
			<path d="M1206.2,624.7c6.1-2.9,10.4-8.5,11.5-15.2c1.5-8.4-2.7-16.7-10.3-20.5c-4-2.2-8.7-3-13.2-2.1c-3.7,0.7-5.3,1.6-11.9,6.6
				c-6.3,4.8-8.6,6.2-12.2,7.4c-4.2,1.4-7.3,1.6-16.4,0.7c-7.6-0.7-10.4-0.6-13.8,0.7c-2.3,0.9-4.3,2.1-6.1,3.8
				c-4.4,4-6.9,9.7-6.8,15.6c0.2,2.8,0.9,5.6,2.1,8.1c1.1,2,2.5,3.9,4.1,5.5c2.5,2.2,5.5,3.8,8.7,4.8c3.6,1,7.4,1,10.9-0.2
				c3.3-1.1,4.3-1.7,12.2-7.6c8.5-6.3,13.2-7.7,23.7-6.8s11,0.9,14.5,0C1204.3,625.3,1205.3,625,1206.2,624.7z M1200.2,622.2
				c-1.9,0.1-3.3,0.1-8.7-0.4c-3.7-0.5-7.4-0.6-11.1-0.3c-6.3,0.6-11.1,2.7-17.9,7.7c-1.3,1-3.4,2.5-4.5,3.4c-3.7,2.8-6,3.9-8.8,4.3
				c-5.9,0.9-11.8-1.6-15.2-6.5c-1.3-1.8-2.1-3.8-2.6-5.9c-2-7.9,2.5-16,10.2-18.6c3-1,4.9-1.1,12.4-0.3c3.5,0.4,7,0.6,10.6,0.4
				c1.9-0.1,3.9-0.5,5.7-1.2c1.9-0.4,3.7-1.1,5.4-2c3.4-1.9,6.6-4.1,9.6-6.5c4.8-3.7,6.6-4.8,8.8-5.4c10.5-3,20.6,5.1,20.2,16.3
				c-0.1,4.2-1.9,8.1-5,10.9C1206.7,620.4,1203.6,621.9,1200.2,622.2L1200.2,622.2z"/>
			<path d="M1202.3,615.6c3.6-1.9,5.8-5.6,5.9-9.6c-0.2-7-8.4-11.8-14.5-8.5c-1.8,0.9-3.2,2.4-4.1,4.2c-2.3,4.1-1.9,8,1.1,11.4
				C1193.6,616.2,1198.3,617.2,1202.3,615.6z M1197.1,612.6c-3.5-0.8-5.7-4.3-4.9-7.8c0.1-0.4,0.2-0.7,0.3-1.1
				c0.3-0.6,0.8-1.2,1.3-1.8c0.7-0.7,0.9-0.8,2.7-1.3s2.1-0.5,3-0.3c2.8,0.6,4.8,3.2,4.8,6.1c0.1,1.9-0.8,3.8-2.4,4.9
				C1200.5,612.2,1198.8,612.6,1197.1,612.6L1197.1,612.6z"/>
			<polygon class="st0" points="1139,607.5 1129.8,609.7 1126.9,616.1 1126.5,625.2 1127.5,630.4 1141.3,636.1 1134.2,626.8 
				1134.5,620.3 1133.4,615 1142.8,609 			"/>
			<path d="M1284.7,475.9c-0.1-0.3-0.3-0.5-0.4-0.8c-2.1-5.2-1.8-13.2,0.4-18.8c-3.4-5.1-4-10.1-3.3-16.5c0.3-2.7,0.5-5.4,0.7-8.1
				c-0.1-0.5-0.1-0.9-0.1-1.4c0-6,0.4-11.3-0.8-17.1c-0.9-1.2-1.7-2.6-2.3-4c-0.3-0.6-0.5-1.1-0.7-1.5c-0.1-0.1-0.2-0.2-0.3-0.4l0,0
				c-3.8-2.1-5.4-6.5-6.8-10.5c-1.6-4.2-2.8-8.5-3.5-12.9c-1.3-3.1-2.5-6.3-3.5-9.5c-0.9-2.8-1.8-5.8-3.9-8
				c-0.3-0.2-0.5-0.3-0.8-0.5c-3.3-2.3-7.2-4.5-10-7.4c-0.1-0.1-0.2-0.2-0.3-0.4c-3.2-1.8-6.5-3.5-9.2-6.1c-1.9-1.8-3.5-3.9-4.8-6.2
				c-1.3-2.2-1.8-4.7-3.3-6.7c-0.3-0.4-0.5-0.9-0.7-1.5c-2.9-1-5.7-2.5-8.2-4.3c-0.3,0-0.6,0-0.8,0c-4.3-0.4-8.3-2.7-11.9-5
				c-1.9-1.1-3.7-2.4-5.4-3.8c-0.8-0.9-1.5-1.9-2.1-3c-2.8-1.4-5.4-3.4-7.4-5.8c-1-0.3-1.9-0.7-2.6-1.4c-2.8-0.6-5.7-1.1-8.5-1.3
				c-4.8-0.3-9.4-0.4-14.2-1.1c-0.3,0-0.6-0.1-0.9-0.2c-0.4,0.1-0.8,0.1-1.1,0c-4.3-0.6-9.2-0.8-13.4-2.1c-0.4-0.1-0.7-0.3-1.1-0.5
				c-1.8,0.2-3.6,0.2-5.3,0.1c-5.4-0.1-6.8-0.3-9.8-1.8c-1.2,1.2-2.9,1.9-4.6,1.8h-0.2c-1.1,1.1-2.7,1.7-4.3,1.7
				c-0.7,0.3-1.5,0.4-2.3,0.4c-1.2,1.5-3,2.3-4.9,2.2c-0.6,0-1.2-0.1-1.7-0.2c-1.1,0.6-2.3,1-3.5,0.9c-0.7,0-1.3-0.1-1.9-0.3
				c-0.6,0.2-1.2,0.2-1.9,0.2c-0.5,0-1-0.1-1.6-0.2c-0.5,0.1-1,0.2-1.5,0.2c-1,0-2.1-0.2-3-0.7h-0.3c-0.8,0-1.5-0.1-2.3-0.4
				c-0.7-0.1-1.4-0.3-2-0.6c-4.2,6.1-13.8,11-21.4,10.2c-4.2-0.4-6.5-1.4-14.3-7.1c-3.5,1.1-7.3,1.4-10.9,0.6
				c-4-0.8-8.8-1.2-12.2-3.7c-0.1,0-0.1-0.1-0.2-0.1c0.6,2.5,1.9,6.2,4,12.1c4.7,13.1,5.2,17.5,2.3,23.2c-2.6,5-6.7,9-11.7,11.7
				c-5.2,2.5-9.6,2.2-23.3-1.1c-12.9-3.2-14.6-3.2-17-0.8c-2.3,2.1-2.8,4.3-1.8,6.3c0.5,0.8,4.9,6,10,11.5s9.5,10.7,9.9,11.5
				c3.6,7,0.9,19.4-5.5,25.6c-3.5,3.4-6.4,4.5-19.8,7c-6.5,1.3-12.6,2.7-13.6,3.1c-2.3,1.3-3.6,3.7-3.5,6.3c0,3,1.6,4,15.4,9.9
				c6.4,2.7,12.6,5.7,13.8,6.6s3.1,3.7,4.4,6.3c2,4.2,2.2,5.1,2.1,11.1s-0.2,6.7-2.2,10.1c-2.2,3.8-4.7,5.9-18.9,15.8
				c-3.3,2.3-6.4,4.8-7,5.8c-1.4,2.1-1,5.9,1,7.9c1.3,1.4,2.1,1.4,17,1.4s15.8,0.1,18.4,1.5c6.2,3.4,11.5,12.1,12,19.6
				c0.3,3.9,0.1,4.9-1.9,8.8c-2,4-4.2,7.9-6.6,11.6c-7.9,12.8-8.1,13.6-4.4,17.5c1.9,2,2.7,2.3,4.2,2c1-0.2,7.4-3,14.1-6.1
				c11.6-5.4,12.5-5.7,16.7-5.7c5.6,0.1,11,2.8,15.9,7.7c5.7,5.9,6.5,10.6,4.3,26.4c-1,7.1-1.3,11.2-1.1,13.8c2.4-0.1,4.7-0.3,7-0.8
				c2.7-0.6,5.3-1.4,7.8-2.4c0.7-0.3,1.4-0.5,2.1-0.6l1.4-1.6c4.9-5.7,9.8-10.9,10.8-11.6c3.2-2.3,6.8-3,12.6-2.5
				c7.2,0.5,11.6,2.5,15.5,7c2.6,3,3.3,4.6,6.9,16.2v0.1c1-0.5,2.1-0.8,3.3-0.8h0.3c0.2-0.1,0.5-0.1,0.7-0.2
				c0.8-0.5,1.6-0.8,2.6-0.9c0.8-0.3,1.6-0.5,2.5-0.5c0.9-0.4,1.9-0.6,2.9-0.6c0.4,0,0.7,0,1.1,0.1c0.4-0.1,0.7-0.1,1.1-0.1
				c0.5,0,0.9,0.1,1.4,0.2h0.6c0.3,0,0.7,0,1,0.1c0.3,0,0.5-0.1,0.8-0.1s0.5,0,0.8,0c0.2,0,0.3,0,0.5,0c0.3,0,0.7,0,1,0.1
				c3.2-10.7,5-13.7,9.2-16.2c4.4-2.6,9.5-3.9,14.6-3.8c5.5,0.1,8.5,1.1,13.4,5.9c0.9-0.5,1.9-0.9,3-0.9c6-0.5,15.9,0.8,20-4.8
				c0.4-0.5,0.9-1,1.4-1.4c-0.4-2.7-0.5-5.5-0.3-8.2c1.5-7.7,11.2-16,19.9-17c3.3-0.4,5.7,0,11.6,2.5c0.5-0.7,1.1-1.4,1.9-1.8
				c0.3-0.2,0.6-0.5,0.9-0.7c0.4-0.6,0.8-1.1,1.3-1.5c0.3-0.4,0.7-0.7,1.2-1c0.4-1.2,1.2-2.3,2.2-3.1c0.1-0.4,0.3-0.7,0.5-1.1
				c1-3,2-6.1,2.9-9.2c0.3-0.6,0.6-1.2,1.1-1.7c0.2-0.7,0.5-1.4,0.8-2c0.2-0.7,0.4-1.4,0.8-2c-0.4-1.6-0.6-3.2-0.5-4.8
				c0.1-7.7,5.2-16.1,12-20c1.7-1.1,3.7-1.7,5.7-1.7c0-0.1,0-0.1,0-0.2c-0.3-1.3-0.3-2.6,0.1-3.9c0-1.7,0-3.3,0.2-5
				c-0.2-1-0.2-2.1,0.1-3.1C1281,488.6,1281.6,482,1284.7,475.9z M1228.9,388.6c3.5-1.6,5.9-1.8,9.1-0.4c5.5,2.2,8.2,8.5,5.9,14.1
				c-0.7,1.7-1.7,3.1-3.1,4.2c-3.6,3.3-7.7,3.8-11.9,1.5c-5.3-2.6-7.5-9-4.9-14.4C1225,391.4,1226.7,389.7,1228.9,388.6z
				 M1144.2,334.9c3.1-1,6.5-0.6,9.3,1.1c3.6,2.1,5,5.2,4.9,10.3c-0.1,5.6-1.7,8.4-6.4,10.6c-7.6,3.7-15.4-1.8-15.3-10.8
				C1136.9,340.2,1139.3,336.6,1144.2,334.9z M1037.1,452.1c-1.7-2.5-2.1-7.7-0.8-10.8c1-2.5,4.5-5.5,7-6.1s7.2,0.2,9,1.5
				c4.8,3.7,6.2,10.6,3,15.2c-1.7,2.5-6.6,5.3-9.3,5.2C1043.6,457,1038.7,454.3,1037.1,452.1L1037.1,452.1z M1233.8,509.3
				c-2.5,0.4-3.7,0.2-6.3-1.2c-5-2.5-7.3-8.5-5.3-13.7c-7.7,12.3-18.2,22.5-30.7,29.9l0,0c3.7-1.3,5-1.2,8.4,0.6
				c7.7,4,8.1,13.8,0.9,19.1c-2.7,1.9-9.1,1.8-11.7-0.2c-6.3-4.8-6.3-13.3-1.1-17.6c-5.8,3.1-12,5.6-18.3,7.5
				c-6.7,1.9-8.7,2.3-19.6,2.2c0.2,0.1,0.4,0.2,0.6,0.3c3.5,2.1,5,5.1,4.9,10.1s-1.2,7.5-4.4,9.9c-4.9,3.5-11.8,2.4-15.4-2.5
				c0,0,0,0,0-0.1c-2-3.1-2.5-9.6-0.8-13.1c1-2.1,2.7-3.8,4.8-4.8c-14.6-0.5-20.6-2.1-33.2-8.3c-1.8-0.9-3.5-1.8-5.1-2.8
				c6,4.5,5.8,13.1-0.9,18c-2.7,1.9-9.1,1.8-11.7-0.2c-7.4-5.7-6.1-16.7,2.4-19.5c3.5-1.2,4.9-1.1,7.9,0.3
				c-12.5-7.7-22.8-18.4-30.2-31.1c1.1,3.1,0.5,8.1-1.2,10.4c-1.6,2.1-6.6,4.8-9.1,4.7c-2.7,0-7.6-2.9-9.2-5.5
				c-1.8-3.3-2-7.3-0.5-10.8c1.3-2.4,3.4-4.3,5.9-5.4c2.8-1.2,8-0.2,10.6,1.8c0.7,0.6,1.3,1.3,1.9,2c-4.1-7.7-7.1-15.8-9-24.3
				c-2.5-11.2-1.9-29.8,1.4-41.3c2.1-7.6,5.2-14.9,9.2-21.7c-3.3,4.9-10,6.2-15,2.8c-3-2-4.7-5.4-4.7-9c-0.1-4.6,2.7-8.7,6.9-10.5
				c2.9-1.2,7.8-0.4,10.5,1.8c4.1,3.2,5.3,8.9,3,13.5c7.8-12.9,18.8-23.6,31.9-31.1c-5.6,2.4-12.1-0.2-14.5-5.8
				c-0.6-1.4-0.9-3-0.9-4.5c0.1-8.3,9.8-13.7,16.4-9c5.3,3.7,7,10.6,3.6,15.4c-0.8,1.2-1.9,2.3-3.1,3.1c18.2-9.9,39.3-13.2,59.7-9.4
				c9.7,1.8,19,5.2,27.4,10.1c-1.1-0.9-2.1-2.1-2.7-3.4c-4.9-9.8,5.7-20,15-14.5c3.7,2.2,5,4.5,5.2,9.1c0.2,3.4-0.1,4.5-1.4,6.3
				c-3,4.4-8.7,6-13.6,4c25.8,16.1,42.9,45.3,42.5,76.9c-0.2,15.2-4.2,30.2-11.7,43.4c1-1.2,2.2-2.1,3.6-2.8c3.5-1.7,5.9-1.8,9-0.4
				s6.2,5.2,6.7,8.2C1244.4,502.4,1239.8,508.5,1233.8,509.3L1233.8,509.3z M1252.4,457.6c-4.8,3.3-11.3,2.1-14.8-2.6
				c-1.5-2-1.8-3.1-1.7-6.7c0.1-5.1,1.4-7.3,5.9-9.5c3.3-1.6,5.7-1.8,8.6-0.6c5.6,2.2,8.4,8.6,6.2,14.3
				C1255.7,454.6,1254.3,456.4,1252.4,457.6z"/>
			<path d="M1140,535.7c1.7,0.1,3.5,0.1,5.5,0.1l4.8,0.1C1147.1,534.2,1143.2,534.1,1140,535.7z"/>
			<path d="M1151,309.2c-1.2,0.1-2.5,0-3.7-0.5l-0.4,3c0.8-0.2,1.7-0.2,2.5,0c1.7,0.2,2-2.5,0.4-3c-7.1-1.9-12.8-0.8-19.4,1.9
				c-8.3,3.5-17.6,5-26.4,2.8c-1.9-0.5-2.7,2.4-0.8,2.9c7.2,1.6,14.7,1.5,21.8-0.5c3.8-1,7.2-3.1,10.8-4.3c4.3-1.2,8.9-1.2,13.2,0
				l0.4-3c-0.8-0.2-1.7-0.2-2.5,0c-0.8,0-1.5,0.7-1.5,1.6c0,0.6,0.4,1.2,1.1,1.4c1.4,0.4,2.9,0.6,4.4,0.6
				C1152.9,312.2,1152.9,309.2,1151,309.2L1151,309.2z"/>
			<path d="M1190.9,317.4c2.3,1.2,4.8,2.2,6.7,4.1c1.6,1.7,3.4,3.4,5.2,4.8c1.5,1.2,3.6-0.9,2.1-2.1c-2-1.7-3.9-3.5-5.7-5.3
				c-1.9-1.8-4.4-2.9-6.8-4C1190.7,314,1189.2,316.6,1190.9,317.4L1190.9,317.4z"/>
			<path d="M1220.8,336.2c2.5,0.5,4.9,1.5,7,2.9c2,1.4,3.1,3.1,4.5,4.9c1,1.3,2.8-0.1,2.5-1.5l-0.2-0.8l-2.5,1.5
				c2.4,1.8,3,4.7,4.6,7.1s3.7,4.6,4.8,7.5c0.7,1.8,3.6,1,2.9-0.8c-1.2-3.1-3.4-5.4-5.1-8.2s-2.4-5.7-5-7.7
				c-0.6-0.6-1.6-0.5-2.1,0.1c-0.3,0.4-0.5,0.9-0.4,1.4l0.2,0.8l2.5-1.5c-3.6-4.5-7.1-7.2-12.9-8.6
				C1219.7,332.8,1218.9,335.7,1220.8,336.2L1220.8,336.2z"/>
			<path d="M1241.7,352.3c-1.2-2.7-2.3-5.8-5.2-7.2c-1.7-0.8-3.3,1.7-1.5,2.6c2.3,1.1,3.1,3.9,4.1,6.1
				C1239.9,355.6,1242.4,354,1241.7,352.3L1241.7,352.3z"/>
			<path d="M1260.7,375.1c1.1,0.6,1.9,2.9,2.3,4c0.6,1.5,1,3,1.2,4.6c0.2,1.9,3.2,1.9,3,0c-0.2-2.1-0.8-4.2-1.6-6.2
				c-0.7-1.7-1.7-4-3.4-4.9S1259,374.2,1260.7,375.1L1260.7,375.1z"/>
			<circle cx="1146.9" cy="450.8" r="117.8"/>
			<circle class="st0" cx="1150.8" cy="447" r="94.4"/>
			<path d="M268.4,552.1c0.4,0.2,0.8,0.3,1.2,0.4c1.5,0.2,2.5-0.2,3-1.2l0,0C271.3,551.5,269.8,551.8,268.4,552.1z"/>
			<path d="M316.4,416c-5.2,2-6.9,2.2-9.1,1.4c-2.4-0.9-4.5-2.5-6-4.5c-1.7-2.2-2.2-3.7-1.8-7c-0.5-0.2-0.9-0.5-1.3-0.9
				c-2-2.2-4.6-6.4-8-6.4c-0.3,0-0.7,0-1-0.1c-0.9,1-2,1.9-3.1,2.7c-3.5,1.8-9.7,0.5-12.8-2.5c-0.7-0.7-1.2-1.4-1.6-2.3
				c-0.5,0-0.9,0-1.4-0.1c-1.1-0.1-2.2-0.3-3.3-0.5c-0.9-0.3-1.7-0.6-2.5-0.9l-0.2-0.1h-0.2c-0.6-0.2-1.2-0.4-1.7-0.8h-0.2
				c-0.6,0.5-1.3,0.8-2.1,0.8c-0.3,0.1-0.7,0.1-1,0.1c-0.3,0.1-0.7,0.2-1,0.3c-0.3,0.2-0.7,0.3-1,0.3c-0.5,0.7-1.1,1.2-1.7,1.7
				c-3.3,2.4-7.6,2.9-11.5,1.5c-0.9-0.3-1.8-0.9-2.4-1.7h-0.1c-0.4,0.5-0.9,0.9-1.5,1.2c-0.3,0.3-0.6,0.5-0.9,0.7
				c-0.3,0.3-0.7,0.6-1.1,0.8c-0.3,0.4-0.8,0.7-1.2,0.9c-3.1,1.4-5.8,3.1-9.2,3.8c-0.1,0.1-0.1,0.3-0.2,0.4
				c-1.8,2.7-4.4,4.7-7.5,5.6c-1,2.9-2.7,4.7-5.4,6.3c-1.1,0.7-2.3,1.5-3.4,2.2c-0.2,0.2-0.3,0.3-0.5,0.5c-2.3,1.6-4.5,3.5-6.4,5.6
				c-0.2,0.7-0.5,1.5-0.9,2.2c-0.1,0.3-0.3,0.5-0.4,0.7c0,0.1,0,0.2,0,0.2l0,0c0.3,2.2-0.9,4.1-2,5.9c-0.9,1.5-1.9,2.9-3,4.3
				c-3.3,11.3-4.5,23.1-3.6,34.8c0.7,8.8,1.5,17.8,6.2,25.6c2.1,3.6,4.8,6.8,7,10.4c1.1,2,2,4,2.9,6.1c0.2,0.2,0.5,0.4,0.6,0.6
				c0.3,0.2,0.6,0.5,0.9,0.8c0.9,0,1.8,0.5,2.4,1.2c0.2,0.2,0.3,0.5,0.4,0.7c0.6,0.2,1.1,0.6,1.4,1.1c0.2,0.3,0.4,0.5,0.5,0.8
				c0.2,0.2,0.5,0.4,0.7,0.7c0.2,0.2,0.3,0.4,0.4,0.7c0.2,0.2,0.4,0.3,0.5,0.5c0.3,0.4,0.5,0.9,0.6,1.4l0.1,0.1
				c0.2,0.3,0.4,0.6,0.5,1c0.2,0.3,0.3,0.6,0.4,1c3.7-0.3,8.5,2,10.6,5.2c0.8,1.1,1.2,2.5,1.3,3.8c0.2,0,0.4,0,0.6,0
				c3.9,0.6,7.9,2.4,11.2,3.6c0.3,0.1,0.7,0.3,1,0.5c1.8-2.2,3.1-3,5.2-3.4c2.7-0.5,5.6-0.1,8.1,1c1.8,0.9,3.2,2.3,4.1,4.1
				c4.4-0.9,8.8-2,13.2-2.7c0.1-0.6,0.2-1,0.3-1.2c1.6-3.5,7.3-6.3,11.7-5.7c2.4,0.3,3.7,1.1,8.8,5.6c1.7,1.5,3.5,3,5.4,4.3
				c1.2,0.5,2.6,0.3,3.5-0.6c1.2-0.9,1.1-1.9-0.9-9.1c-0.7-2.4-1.3-4.9-1.7-7.4c0.1-1.3,0.5-2.5,1.1-3.6c1-2.1,1.3-2.4,3.7-4.2
				c2.4-1.8,2.7-2,4.6-2.2c2.1-0.3,3.8,0,12,2.5c1.4,0.5,2.9,0.8,4.4,1c1.4-0.3,2.5-1.4,2.8-2.8c0.1-0.9-0.1-1.2-4.7-7.1
				s-4.8-6.2-5.1-7.7c-0.4-4,1.1-7.9,4-10.7c1.1-1.1,2.5-1.8,4-2c1.3-0.3,4.3-0.8,6.5-1c7.4-0.8,7.8-1,8.2-3.7
				c0.2-1.4,0.1-1.8-0.5-2.3c-0.4-0.3-3.4-2-6.7-3.6c-5.7-2.8-6-3.1-7.3-4.8c-1.7-2.5-2.4-5.6-1.9-8.5c0.5-4,2.2-5.8,9-9.8
				c2-1.1,3.9-2.3,5.7-3.8c-0.7-0.9-1.6-1.7-2.5-2.5c-1-0.9-2.2-1.6-3.3-2.3c-0.3-0.2-0.6-0.4-0.9-0.6l-1-0.1
				c-2.6-0.1-5.2-0.3-7.8-0.7c-1.9-0.6-3.2-1.7-4.9-4.1c-2-2.9-2.6-5.3-2.1-8.2c0.4-1.9,0.8-2.7,4.2-7.7l0,0
				c-0.5-0.2,2.9-4.9,2.5-5.5 M230.4,422.4c2.8,0.9,4.3,3.8,3.5,6.5c-0.3,1.2-0.6,1.6-2.1,2.7c-2,1.5-3.3,1.7-5.5,0.6
				c-1.4-0.5-2.5-1.7-2.9-3.2c-0.9-2.9,0.8-5.9,3.7-6.8C228.3,422.1,229.4,422.1,230.4,422.4z M214.1,442.7c2.2,0.2,4,2,4.2,4.2
				c0.6,2.9-1.2,5.7-4.1,6.3c-1.2,0.3-2.4,0.1-3.5-0.4c-1.5-0.6-2.6-1.9-3-3.4c-0.8-2.8,0.8-5.8,3.7-6.6
				C212.3,442.5,213.2,442.5,214.1,442.7L214.1,442.7z M222.5,501.7c-2.3,1.8-4.5,2-6.7,0.6c-1.4-0.9-2.2-2.4-2.4-4
				c-0.3-2,0.5-3.5,2.5-5.1c2.2-1.7,3.8-1.9,6.1-0.8C225.7,494.3,226,499,222.5,501.7L222.5,501.7z M294.4,508.1
				c-0.7,1.7-2.2,3-4,3.6c-1.6,0.3-3.2,0-4.5-0.8c-1.2-1.1-1.9-2.5-2.2-4c-0.1-3,2.1-5.5,5-5.9c1.8,0,3.6,0.7,4.9,2
				C294.4,504.5,294.7,506.3,294.4,508.1z M305.3,465.1c-1.3-0.6-2.1-1.8-2.3-3.2c0.8,7.2-0.1,14.6-2.8,21.3c1-1.5,2.6-2.5,4.4-2.7
				c1.7,0.1,3.4,0.9,4.6,2.1c0.9,1.6,1.1,3.5,0.7,5.3c-0.7,1.7-2.2,3-4,3.5c-2.8,0.6-5.7-1.1-6.3-4c-0.1-0.4-0.1-0.9-0.1-1.4
				s0.1-0.9,0.2-1.4c-1.7,4-4,7.7-6.7,11c-4.6,5.1-10.2,9.3-16.5,12.1c-3.6,1.5-7.4,2.5-11.3,3.1c2.9-0.2,5.5,2,5.7,4.9
				c0.1,1.8-0.6,3.5-2.1,4.6c-1.8,1.4-4.2,1.6-6.2,0.5c-1.5-1.1-2.5-2.8-2.5-4.7c0-2.6,1.8-4.8,4.4-5.3c-7.5,0.9-15-0.1-22-2.9
				c2.6,1.4,3.7,4.7,2.2,7.4c-0.4,0.7-0.9,1.3-1.5,1.8c-3.2,2.5-8.3,0.4-8.6-3.6c-0.2-3.2,2-6,4.9-6.1c0.7-0.1,1.5,0,2.1,0.3
				c-9.4-4.1-17.2-11.3-22-20.4c-2.3-4.3-3.8-9-4.5-13.8c0,0.7-0.2,1.5-0.5,2.1c-2.3,4.9-9.5,3.9-10.3-1.4c-0.3-2.1,0.2-3.3,2-4.8
				c1.3-1.1,1.8-1.3,2.9-1.4c2.6-0.2,5,1.5,5.7,4c-2.8-23.8,13.8-45.4,37.4-49c-0.8,0-1.5-0.2-2.2-0.5c-1.5-0.6-2.6-1.8-2.9-3.4
				c-0.4-1.8,0.1-3.7,1.1-5.1c2.1-2.2,5.6-2.3,7.9-0.2c0.8,0.7,1.4,1.7,1.5,2.8c0.6,2.7-1.1,5.5-3.7,6.3c7.1-0.8,14.4,0.2,21.1,2.8
				l0,0c-1.4-0.6-2.3-1.9-2.4-3.4c-0.8-4.2,2.9-7.4,7.2-6.2c1.9,0.8,3.2,2.6,3.5,4.6c0.2,3.1-2.1,5.7-5.2,5.9c-0.4,0-0.9,0-1.3-0.1
				c3,1.3,5.9,2.9,8.5,4.8c2.8,2,3.5,2.7,6.9,7l-0.1-0.3c-0.3-2,0.5-3.5,2.4-5s3.3-1.8,5.2-1.3c2.9,0.8,4.6,3.9,3.7,6.8
				c-0.9,2.1-2.7,3.7-4.9,4.3c-1.1,0.2-2.3,0.1-3.3-0.4c4.3,5.8,5.5,8.7,7,15.5c0.2,1,0.4,1.9,0.5,2.8c-0.1-3.7,3.3-6.3,7.3-5.2
				c1.9,0.8,3.2,2.6,3.5,4.6C313.7,464.7,309,467.5,305.3,465.1L305.3,465.1z"/>
			<path d="M295.4,442.3c-0.5-0.7-1-1.4-1.6-2.2s-1-1.3-1.4-1.9C292.7,440,293.8,441.5,295.4,442.3z"/>
			<circle cx="260.2" cy="465.7" r="58.5"/>
			<circle class="st0" cx="257.5" cy="465.3" r="46.8"/>
			<path d="M194.2,450.3c0.2,1.8-0.4,3.7-0.5,5.5s-0.1,3.6,0.1,5.4c0.2,1.9,3.2,1.9,3,0c-0.2-1.8-0.3-3.6-0.1-5.4s0.8-3.6,0.5-5.5
				S193.9,448.4,194.2,450.3z"/>
			<path d="M197.2,491.2c1.5,4.6,3.1,9,6.3,12.7c1.3,1.5,3.4-0.7,2.1-2.1c-2.9-3.3-4.2-7.3-5.5-11.4
				C199.5,488.6,196.6,489.4,197.2,491.2z"/>
			<path d="M212.7,421.6c2.9-7.4,9.1-11,16.2-13.8c1.8-0.7,1-3.6-0.8-2.9c-8.2,3.2-15,7.4-18.3,15.9
				C209.1,422.6,212,423.3,212.7,421.6L212.7,421.6z"/>
			<path d="M268,396.3l-2.5-1.1l-1.5,2.6c1.7,0.8,3.5,1.2,5.4,1.2c0.8,0,1.5-0.7,1.5-1.5s-0.7-1.5-1.5-1.5c-1.3,0-2.7-0.3-3.9-0.8
				c-0.7-0.4-1.6-0.2-2,0.5s-0.1,1.6,0.5,2l2.5,1.2c0.7,0.4,1.6,0.2,2.1-0.5C268.9,397.6,268.7,396.7,268,396.3z"/>
			<path d="M314.9,421.2c1.6-1.5,3.4-2.8,5.3-4c1.9-1.1,4.2-1.3,6.3-1.8l-1.9-1.5c0.2,2.7-2.8,5.5-4.3,7.6l2.7,0.3
				c-0.3-1.1,1.1-3.7,1.5-4.7c0.6-1.8-2.3-2.6-2.9-0.8s-2,4.3-1.5,6.3c0.3,0.8,1.1,1.3,1.9,1c0.3-0.1,0.6-0.3,0.8-0.6
				c2-2.7,4.9-5.5,4.7-9.1c0-0.8-0.7-1.5-1.6-1.5c-0.1,0-0.2,0-0.3,0c-2.4,0.5-4.9,0.8-7.1,2.1c-2.1,1.3-4.1,2.8-5.9,4.5
				C311.3,420.3,313.4,422.4,314.9,421.2L314.9,421.2z"/>
			<path d="M332.8,446.9c1.1,0.3,2.3,0.4,3.4,0.2c1-0.1,3.1-0.4,3,1.1c-0.2,1.9,2.8,1.9,3,0c0.1-1.7-0.9-3.3-2.6-3.8
				c-2-0.8-4,0.2-6-0.4S331,446.4,332.8,446.9L332.8,446.9z"/>
			<path d="M309.3,421.1c3.2-1,6.5-1.6,9.9-1.9c1.9,0,1.9-3,0-3c-3.6,0.3-7.3,1-10.8,2C306.5,418.7,307.3,421.6,309.3,421.1
				L309.3,421.1z"/>
			<path d="M289.9,403.1c1-1.9,2.7-3,4.3-4.3c1.6-1.3,2.9-3,3.8-4.9c0.8-1.7-1.8-3.3-2.6-1.5c-0.9,2-2.3,3.7-4.1,5
				c-1.6,1.1-3,2.6-4,4.3C286.4,403.3,289,404.8,289.9,403.1L289.9,403.1z"/>
			<path d="M299,406.6l0.5-9.1c0.1-1.6,0.7-4.2-1.4-4.9c-4.3-1.5-4.4,7.6-4.5,9.6s2.9,1.9,3,0c0.1-1.6,0.2-3.1,0.5-4.6
				c0.1-0.4,0.3-2.3-0.5-2.4l-0.1,2.4l-0.5,9.1C295.8,408.6,298.8,408.6,299,406.6z"/>
			<path d="M296.3,392.5c0.3,1.5,0.5,3.1,0.7,4.7c0,0.8,0.7,1.5,1.5,1.5s1.5-0.7,1.5-1.5c-0.2-1.8-0.5-3.7-0.8-5.5
				S295.9,390.7,296.3,392.5z"/>
			<path d="M260.1,397c0.2-0.8,0.5-1.6,1.1-2.2s0.6-1.5,0-2.1s-1.5-0.6-2.1,0c-0.9,1-1.6,2.2-1.9,3.5c-0.2,0.8,0.2,1.6,1,1.8
				C259,398.3,259.8,397.8,260.1,397L260.1,397z"/>
			<path d="M1139.9,312.6c-2.6-0.5-5.2-0.8-7.8-1.1c-2-0.2-4.1-0.7-5.9,0.4c-0.7,0.4-1,1.3-0.5,2.1c0.4,0.7,1.3,1,2.1,0.5
				c1.3-0.8,3.8,0,5.3,0.1c2,0.2,4.1,0.5,6.1,0.9S1141.8,313,1139.9,312.6z"/>
			<path d="M1219.7,340.4c1.4,2.3,3,4.5,4.8,6.5c0.6,0.6,1.6,0.6,2.1,0c0.4-0.4,0.5-0.9,0.4-1.4c-0.4-1.4-0.8-2.8-1.2-4.2l-2.8,1.2
				c1.8,2.4,3.3,5,4.5,7.8c1.1,2.3,2.8,3.7,4.7,5.3c0.6,0.6,1.6,0.5,2.1-0.1s0.5-1.5,0-2c-1-1.3-1.7-2.8-2-4.5
				c-0.4-1.9-3.3-1.1-2.9,0.8c0.4,2.1,1.4,4.1,2.8,5.8l2.1-2.1c-2-1.5-3.7-3.5-4.7-5.8c-1.1-2.4-2.4-4.6-4-6.7
				c-0.9-1.2-3.3-0.6-2.7,1.2c0.5,1.4,0.9,2.8,1.2,4.2l2.5-1.5c-1.7-1.8-3.1-3.7-4.4-5.9C1221.3,337.2,1218.7,338.7,1219.7,340.4
				L1219.7,340.4z"/>
			<path d="M1254.2,373c1.6,3.3,2.5,6.9,2.8,10.6c0.2,1.9,3.2,1.9,3,0c-0.4-4.2-1.5-8.3-3.3-12.1
				C1256,369.7,1253.4,371.3,1254.2,373z"/>
			<path d="M1264.6,400c1.3,2.2,2.5,4.5,3.4,6.9c0.7,1.8,3.6,1,2.9-0.8c-1-2.6-2.3-5.2-3.7-7.7c-0.4-0.7-1.3-1-2.1-0.5
				C1264.4,398.4,1264.2,399.3,1264.6,400L1264.6,400z"/>
			<path d="M1275,418.3c0.5,3.1,0.9,6.3,1,9.5c0.1,1.9,3.1,1.9,3,0c-0.1-3.5-0.5-6.9-1.1-10.3C1277.6,415.6,1274.8,416.4,1275,418.3
				L1275,418.3z"/>
			<path d="M1276.5,449.2C1276.7,449.2,1276.7,449.2,1276.5,449.2v0.1c0,0.2,0.3,0.8,0.4,1c0.2,0.5,0.5,1.1,0.8,1.6
				c1,1.6,3.6,0.1,2.6-1.5c-0.4-0.7-0.8-1.4-1.1-2.1c-0.3-1-1.1-1.7-2.1-2c-0.8-0.2-1.6,0.2-1.8,1c-0.2,0.8,0.2,1.6,1,1.8
				L1276.5,449.2z"/>
			<path d="M1279.8,474c-0.2,1-0.6,2-1,3c-0.4,1.1-0.7,2.2-0.9,3.4c-0.4,1.9,2.5,2.7,2.9,0.8c0.2-1.1,0.5-2.3,0.9-3.4
				c0.4-1,0.8-2,1-3C1283,472.9,1280.1,472.1,1279.8,474L1279.8,474z"/>
			<text transform="matrix(1 0 0 1 9 258.2236)"><tspan x="0" y="0" class="st1 st2 st3 st4">Bike King</tspan><tspan x="0" y="284" class="st1 st2 st3 st4">B   rders</tspan></text>
			<g>
				<path class="st5" d="M1121.1,86.7l-6.8,23.7c-0.9,3.1,1.1,6.4,4.3,7.3l0,0l135.9,39.1c3.1,1,6.5-0.8,7.4-3.9l6.8-23.7
					L1121.1,86.7L1121.1,86.7z"/>
				<path class="st5" d="M1271.3,121.4c4-9.4,14.2-29.6,21.9-44.2c4.2-0.5,7.7-3.4,9-7.4c1.6-5.7-1.9-11.5-7.8-13.3
					s-12.1,1.5-13.7,7.1c-0.5,1.8-0.5,3.6-0.1,5.5l-12.4,6.4c-1-7.3,0.4-17.6,2.2-25.4c3.6-0.9,6.4-3.6,7.5-7.2
					c1.6-5.7-1.9-11.5-7.8-13.3c-5.9-1.7-12.1,1.5-13.7,7.1c-0.7,2.4-0.4,5.1,0.7,7.4c-9.2,8.4-20.8,15.8-27.9,20
					c-2.1-10.8-2.1-31.2-1.1-46.8c3.1-1.1,5.3-3.7,6.3-6.8c1.6-5.7-1.9-11.5-7.8-13.3s-12.1,1.5-13.7,7.1c-0.9,3.1-0.3,6.4,1.7,9.1
					c-7.5,13.8-18.4,31-25.8,39.1c-3.8-7.3-9.7-19.6-13.1-31.7c2.2-1.4,3.8-3.4,4.5-5.9c1.6-5.7-1.9-11.5-7.8-13.3
					s-12.1,1.5-13.7,7.1c-1,3.6,0,7.4,2.6,10.1c-2.6,7.5-6.8,17.1-11.5,22.7l-7-11.9c1.3-1.2,2.3-2.8,2.8-4.6
					c1.6-5.7-1.9-11.5-7.8-13.3c-5.9-1.7-12.1,1.5-13.7,7.1c-1.1,4,0.4,8.5,3.6,11.1c-1.3,16.6-3.3,39.1-4.9,49.2L1271.3,121.4
					L1271.3,121.4z M1205.5,70.8c5.9,1.7,9.4,7.7,7.8,13.3c-1.6,5.6-7.7,8.8-13.7,7.1c-5.9-1.6-9.4-7.7-7.8-13.3
					C1193.4,72.4,1199.6,69.1,1205.5,70.8z"/>
			</g>
		</g>
	</g>
</g>
<g>
	<path class="st6" d="M648.3,555.1"/>
</g>
</svg>
